<?xml version="1.0" encoding="UTF-8" standalone="no"?><svg width="211" height="180" viewBox="0 0 211 180" fill="none" xmlns="http://www.w3.org/2000/svg">
<path d="M113.492 63.154C116.791 63.8357 117.528 64.572 118.209 67.8715C118.237 68.0351 118.455 68.0351 118.482 67.8715C119.164 64.572 119.9 63.8357 123.2 63.154C123.363 63.1267 123.363 62.9086 123.2 62.8813C119.9 62.1996 119.164 61.4633 118.482 58.1638C118.455 58.0002 118.237 58.0002 118.209 58.1638C117.528 61.4633 116.791 62.1996 113.492 62.8813C113.328 62.9086 113.328 63.1267 113.492 63.154Z" fill="#5E17FE"/>
<path d="M160.285 136.807C162.63 137.297 163.148 137.816 163.639 140.161C163.666 140.27 163.83 140.27 163.83 140.161C164.321 137.816 164.839 137.297 167.184 136.807C167.293 136.779 167.293 136.616 167.184 136.616C164.839 136.125 164.321 135.607 163.83 133.262C163.802 133.153 163.639 133.153 163.639 133.262C163.148 135.607 162.63 136.125 160.285 136.616C160.176 136.616 160.176 136.779 160.285 136.807Z" fill="#5E17FE"/>
<path d="M43.1934 134.216C45.5385 134.707 46.0566 135.225 46.5475 137.57C46.5747 137.679 46.7384 137.679 46.7384 137.57C47.2292 135.225 47.7473 134.707 50.0924 134.216C50.2014 134.189 50.2014 134.025 50.0924 134.025C47.7473 133.534 47.2292 133.016 46.7384 130.671C46.7111 130.562 46.5475 130.562 46.5475 130.671C46.0566 133.016 45.5385 133.534 43.1934 134.025C43.0844 134.052 43.0844 134.189 43.1934 134.216Z" fill="#5E17FE"/>
<path d="M84.8599 82.5967H84.9145C85.6234 80.7151 86.0325 79.379 86.1961 78.3428C87.205 78.1791 88.5684 77.7701 90.45 77.0611V77.0066C88.5684 76.2976 87.2323 75.8886 86.1961 75.725C86.0325 74.716 85.6234 73.3526 84.9145 71.4711H84.8599C84.1509 73.3526 83.7419 74.6888 83.5783 75.725C82.5694 75.8886 81.2059 76.2976 79.3244 77.0066V77.0611C81.2059 77.7701 82.5421 78.1791 83.5783 78.3428C83.7419 79.379 84.1509 80.7424 84.8599 82.5967Z" fill="#5E17FE"/>
<path d="M106.593 36.8943C113.792 35.1218 113.792 36.6762 106.593 34.9037C104.82 27.7048 106.375 27.7048 104.602 34.9037C97.4034 36.6762 97.4034 35.1218 104.602 36.8943C106.375 44.0932 104.848 44.0932 106.593 36.8943Z" fill="#5E17FE"/>
<path d="M109.347 130.317L108.311 128.271L107.247 130.317L105.311 131.435L107.247 132.553L108.311 134.571L109.347 132.553L111.283 131.435L109.347 130.317Z" fill="#5E17FE"/>
<path d="M210.759 178.418C210.759 178.364 210.732 178.336 210.732 178.282C210.732 178.227 210.704 178.2 210.704 178.146C210.677 178.091 210.677 178.037 210.65 178.009C210.65 177.982 210.623 177.955 210.623 177.927C210.623 177.927 210.623 177.9 210.595 177.9C210.568 177.846 210.541 177.818 210.514 177.764C210.486 177.737 210.459 177.682 210.432 177.655C210.405 177.627 210.377 177.6 210.323 177.546C210.268 177.491 210.268 177.464 210.214 177.437C210.186 177.409 210.159 177.382 210.105 177.355C210.05 177.328 210.023 177.3 209.968 177.273C209.968 177.273 209.941 177.273 209.941 177.246C209.914 177.218 209.886 177.218 209.859 177.218C209.805 177.191 209.777 177.191 209.723 177.164C209.668 177.164 209.641 177.137 209.586 177.137C209.532 177.137 209.505 177.109 209.45 177.109C209.396 177.109 209.368 177.109 209.314 177.109C209.259 177.109 209.232 177.109 209.177 177.109C209.123 177.109 209.096 177.137 209.041 177.137C208.987 177.137 208.959 177.164 208.905 177.164C208.85 177.191 208.796 177.191 208.768 177.218C208.741 177.218 208.714 177.246 208.687 177.246C208.687 177.246 208.659 177.246 208.659 177.273C208.605 177.3 208.578 177.328 208.523 177.355C208.496 177.382 208.441 177.409 208.414 177.437C208.387 177.464 208.332 177.491 208.305 177.546C208.278 177.573 208.223 177.6 208.196 177.655C208.169 177.682 208.141 177.709 208.114 177.764C208.087 177.818 208.059 177.846 208.032 177.9C208.032 177.9 208.032 177.927 208.005 177.927C207.978 177.955 207.978 177.982 207.978 178.009C207.95 178.064 207.95 178.091 207.923 178.146C207.923 178.2 207.896 178.227 207.896 178.282C207.896 178.336 207.869 178.364 207.869 178.418C207.869 178.473 207.869 178.5 207.869 178.555C207.869 178.609 207.869 178.636 207.869 178.691C207.869 178.745 207.896 178.773 207.896 178.827C207.896 178.882 207.923 178.909 207.923 178.964C207.95 179.018 207.95 179.073 207.978 179.1C207.978 179.127 208.005 179.155 208.005 179.182C208.005 179.182 208.005 179.209 208.032 179.209C208.059 179.264 208.087 179.291 208.114 179.345C208.141 179.373 208.169 179.427 208.196 179.454C208.223 179.482 208.25 179.509 208.305 179.564C208.332 179.591 208.359 179.645 208.414 179.673C208.441 179.7 208.468 179.727 208.523 179.754C208.578 179.782 208.605 179.809 208.659 179.836C208.659 179.836 208.687 179.836 208.687 179.863C208.714 179.891 208.741 179.891 208.768 179.891C208.823 179.918 208.85 179.918 208.905 179.945C208.959 179.945 208.987 179.973 209.041 179.973C209.096 179.973 209.123 180 209.177 180C209.232 180 209.259 180 209.314 180C209.368 180 209.396 180 209.45 180C209.505 180 209.532 179.973 209.586 179.973C209.641 179.973 209.668 179.945 209.723 179.945C209.777 179.918 209.832 179.918 209.859 179.891C209.886 179.891 209.914 179.863 209.941 179.863C209.941 179.863 209.968 179.864 209.968 179.836C210.023 179.809 210.05 179.782 210.105 179.754C210.132 179.727 210.186 179.7 210.214 179.673C210.241 179.645 210.268 179.618 210.323 179.564C210.35 179.536 210.405 179.509 210.432 179.454C210.459 179.427 210.486 179.4 210.514 179.345C210.541 179.291 210.568 179.264 210.595 179.209C210.595 179.209 210.595 179.182 210.623 179.182C210.65 179.155 210.65 179.127 210.65 179.1C210.677 179.045 210.677 179.018 210.704 178.964C210.704 178.909 210.732 178.882 210.732 178.827C210.732 178.773 210.759 178.745 210.759 178.691C210.759 178.636 210.759 178.609 210.759 178.555C210.759 178.527 210.759 178.473 210.759 178.418Z" fill="#5E17FE"/>
<path d="M206.805 172.583C207.588 172.583 208.223 171.948 208.223 171.165C208.223 170.382 207.588 169.747 206.805 169.747C206.022 169.747 205.387 170.382 205.387 171.165C205.387 171.948 206.022 172.583 206.805 172.583Z" fill="#5E17FE"/>
<path d="M201.515 163.639C202.298 163.639 202.933 163.004 202.933 162.221C202.933 161.438 202.298 160.803 201.515 160.803C200.732 160.803 200.097 161.438 200.097 162.221C200.097 163.004 200.732 163.639 201.515 163.639Z" fill="#5E17FE"/>
<path d="M196.225 154.695C197.008 154.695 197.643 154.06 197.643 153.277C197.643 152.494 197.008 151.859 196.225 151.859C195.442 151.859 194.807 152.494 194.807 153.277C194.807 154.06 195.442 154.695 196.225 154.695Z" fill="#5E17FE"/>
<path d="M190.935 145.751C191.718 145.751 192.353 145.116 192.353 144.333C192.353 143.55 191.718 142.915 190.935 142.915C190.152 142.915 189.517 143.55 189.517 144.333C189.517 145.116 190.152 145.751 190.935 145.751Z" fill="#5E17FE"/>
<path d="M185.645 136.807C186.428 136.807 187.063 136.172 187.063 135.389C187.063 134.606 186.428 133.971 185.645 133.971C184.861 133.971 184.227 134.606 184.227 135.389C184.227 136.172 184.861 136.807 185.645 136.807Z" fill="#5E17FE"/>
<path d="M180.355 127.862C181.138 127.862 181.772 127.227 181.772 126.444C181.772 125.661 181.138 125.026 180.355 125.026C179.571 125.026 178.937 125.661 178.937 126.444C178.937 127.227 179.571 127.862 180.355 127.862Z" fill="#5E17FE"/>
<path d="M175.064 118.918C175.848 118.918 176.482 118.283 176.482 117.5C176.482 116.717 175.848 116.082 175.064 116.082C174.281 116.082 173.646 116.717 173.646 117.5C173.646 118.283 174.281 118.918 175.064 118.918Z" fill="#5E17FE"/>
<path d="M169.774 109.947C170.557 109.947 171.192 109.312 171.192 108.529C171.192 107.746 170.557 107.111 169.774 107.111C168.991 107.111 168.356 107.746 168.356 108.529C168.356 109.312 168.991 109.947 169.774 109.947Z" fill="#5E17FE"/>
<path d="M164.484 101.003C165.267 101.003 165.902 100.368 165.902 99.5847C165.902 98.8016 165.267 98.1667 164.484 98.1667C163.701 98.1667 163.066 98.8016 163.066 99.5847C163.066 100.368 163.701 101.003 164.484 101.003Z" fill="#5E17FE"/>
<path d="M159.194 92.0586C159.977 92.0586 160.612 91.4237 160.612 90.6406C160.612 89.8575 159.977 89.2227 159.194 89.2227C158.411 89.2227 157.776 89.8575 157.776 90.6406C157.776 91.4237 158.411 92.0586 159.194 92.0586Z" fill="#5E17FE"/>
<path d="M153.904 83.1147C154.687 83.1147 155.322 82.4799 155.322 81.6968C155.322 80.9136 154.687 80.2788 153.904 80.2788C153.121 80.2788 152.486 80.9136 152.486 81.6968C152.486 82.4799 153.121 83.1147 153.904 83.1147Z" fill="#5E17FE"/>
<path d="M148.614 74.1705C149.397 74.1705 150.032 73.5357 150.032 72.7526C150.032 71.9694 149.397 71.3346 148.614 71.3346C147.831 71.3346 147.196 71.9694 147.196 72.7526C147.196 73.5357 147.831 74.1705 148.614 74.1705Z" fill="#5E17FE"/>
<path d="M143.324 65.2264C144.107 65.2264 144.742 64.5916 144.742 63.8085C144.742 63.0254 144.107 62.3905 143.324 62.3905C142.541 62.3905 141.906 63.0254 141.906 63.8085C141.906 64.5916 142.541 65.2264 143.324 65.2264Z" fill="#5E17FE"/>
<path d="M138.034 56.2825C138.817 56.2825 139.452 55.6476 139.452 54.8645C139.452 54.0814 138.817 53.4465 138.034 53.4465C137.251 53.4465 136.616 54.0814 136.616 54.8645C136.616 55.6476 137.251 56.2825 138.034 56.2825Z" fill="#5E17FE"/>
<path d="M132.744 47.311C133.527 47.311 134.162 46.6762 134.162 45.8931C134.162 45.1099 133.527 44.4751 132.744 44.4751C131.96 44.4751 131.326 45.1099 131.326 45.8931C131.326 46.6762 131.96 47.311 132.744 47.311Z" fill="#5E17FE"/>
<path d="M127.453 38.3669C128.237 38.3669 128.871 37.7321 128.871 36.949C128.871 36.1659 128.237 35.531 127.453 35.531C126.67 35.531 126.035 36.1659 126.035 36.949C126.035 37.7321 126.67 38.3669 127.453 38.3669Z" fill="#5E17FE"/>
<path d="M122.163 29.4226C122.946 29.4226 123.581 28.7878 123.581 28.0046C123.581 27.2215 122.946 26.5867 122.163 26.5867C121.38 26.5867 120.745 27.2215 120.745 28.0046C120.745 28.7878 121.38 29.4226 122.163 29.4226Z" fill="#5E17FE"/>
<path d="M116.9 20.4788C117.684 20.4788 118.318 19.8439 118.318 19.0608C118.318 18.2777 117.684 17.6428 116.9 17.6428C116.117 17.6428 115.482 18.2777 115.482 19.0608C115.482 19.8439 116.117 20.4788 116.9 20.4788Z" fill="#5E17FE"/>
<path d="M111.31 11.5345C112.094 11.5345 112.728 10.8997 112.728 10.1166C112.728 9.33345 112.094 8.69861 111.31 8.69861C110.527 8.69861 109.892 9.33345 109.892 10.1166C109.892 10.8997 110.527 11.5345 111.31 11.5345Z" fill="#5E17FE"/>
<path d="M200.342 178.282C200.342 178.227 200.315 178.2 200.315 178.146C200.288 178.091 200.288 178.037 200.261 178.009C200.261 177.982 200.233 177.955 200.233 177.927C200.233 177.927 200.233 177.9 200.206 177.9C200.179 177.846 200.151 177.818 200.124 177.764C200.097 177.737 200.07 177.682 200.042 177.655C200.015 177.627 199.988 177.6 199.933 177.546C199.879 177.491 199.879 177.464 199.824 177.437C199.797 177.409 199.77 177.382 199.715 177.355C199.661 177.328 199.633 177.3 199.579 177.273C199.579 177.273 199.552 177.273 199.552 177.246C199.524 177.218 199.497 177.218 199.47 177.218C199.415 177.191 199.388 177.191 199.333 177.164C199.279 177.164 199.252 177.137 199.197 177.137C199.143 177.137 199.115 177.109 199.061 177.109C199.006 177.109 198.979 177.109 198.924 177.109C198.87 177.109 198.843 177.109 198.788 177.109C198.733 177.109 198.706 177.137 198.652 177.137C198.597 177.137 198.57 177.164 198.515 177.164C198.461 177.191 198.406 177.191 198.379 177.218C198.352 177.218 198.324 177.246 198.297 177.246C198.297 177.246 198.27 177.246 198.27 177.273C198.215 177.3 198.188 177.328 198.134 177.355C198.106 177.382 198.052 177.409 198.024 177.437C197.997 177.464 197.943 177.491 197.915 177.546C197.888 177.573 197.834 177.6 197.806 177.655C197.779 177.682 197.752 177.709 197.725 177.764C197.697 177.818 197.67 177.846 197.643 177.9C197.643 177.9 197.643 177.927 197.615 177.927C197.588 177.955 197.588 177.982 197.588 178.009C197.561 178.064 197.561 178.091 197.534 178.146C197.534 178.2 197.506 178.227 197.506 178.282C197.506 178.336 197.479 178.364 197.479 178.418C197.479 178.473 197.479 178.5 197.479 178.555C197.479 178.609 197.479 178.636 197.479 178.691C197.479 178.745 197.506 178.773 197.506 178.827C197.506 178.882 197.534 178.909 197.534 178.964C197.561 179.018 197.561 179.073 197.588 179.1C197.588 179.127 197.615 179.155 197.615 179.182C197.615 179.182 197.615 179.209 197.643 179.209C197.67 179.264 197.697 179.291 197.725 179.345C197.752 179.373 197.779 179.427 197.806 179.454C197.834 179.482 197.861 179.509 197.915 179.564C197.943 179.591 197.97 179.645 198.024 179.673C198.052 179.7 198.079 179.727 198.134 179.754C198.188 179.782 198.215 179.809 198.27 179.836C198.27 179.836 198.297 179.836 198.297 179.863C198.324 179.891 198.352 179.891 198.379 179.891C198.434 179.918 198.461 179.918 198.515 179.945C198.57 179.945 198.597 179.973 198.652 179.973C198.706 179.973 198.733 180 198.788 180C198.843 180 198.87 180 198.924 180C198.979 180 199.006 180 199.061 180C199.115 180 199.143 179.973 199.197 179.973C199.252 179.973 199.279 179.945 199.333 179.945C199.388 179.918 199.442 179.918 199.47 179.891C199.497 179.891 199.524 179.863 199.552 179.863C199.552 179.863 199.579 179.864 199.579 179.836C199.633 179.809 199.661 179.782 199.715 179.754C199.742 179.727 199.797 179.7 199.824 179.673C199.851 179.645 199.879 179.618 199.933 179.564C199.961 179.536 200.015 179.509 200.042 179.454C200.07 179.427 200.097 179.4 200.124 179.345C200.151 179.291 200.179 179.264 200.206 179.209C200.206 179.209 200.206 179.182 200.233 179.182C200.261 179.155 200.261 179.127 200.261 179.1C200.288 179.045 200.288 179.018 200.315 178.964C200.315 178.909 200.342 178.882 200.342 178.827C200.342 178.773 200.37 178.745 200.37 178.691C200.37 178.636 200.37 178.609 200.37 178.555C200.37 178.5 200.37 178.473 200.37 178.418C200.37 178.364 200.342 178.336 200.342 178.282Z" fill="#5E17FE"/>
<path d="M189.953 178.282C189.953 178.227 189.926 178.2 189.926 178.146C189.899 178.091 189.898 178.037 189.871 178.009C189.871 177.982 189.844 177.955 189.844 177.927C189.844 177.927 189.844 177.9 189.817 177.9C189.789 177.846 189.762 177.818 189.735 177.764C189.708 177.737 189.68 177.682 189.653 177.655C189.626 177.627 189.599 177.6 189.544 177.546C189.517 177.518 189.489 177.464 189.435 177.437C189.408 177.409 189.38 177.382 189.326 177.355C189.271 177.328 189.244 177.3 189.19 177.273C189.19 177.273 189.162 177.273 189.162 177.246C189.135 177.218 189.108 177.218 189.08 177.218C189.026 177.191 188.999 177.191 188.944 177.164C188.89 177.164 188.862 177.137 188.808 177.137C188.753 177.137 188.726 177.109 188.671 177.109C188.617 177.109 188.59 177.109 188.535 177.109C188.481 177.109 188.453 177.109 188.399 177.109C188.344 177.109 188.317 177.137 188.262 177.137C188.208 177.137 188.181 177.164 188.126 177.164C188.072 177.191 188.017 177.191 187.99 177.218C187.962 177.218 187.935 177.246 187.908 177.246C187.908 177.246 187.881 177.246 187.881 177.273C187.826 177.3 187.799 177.328 187.744 177.355C187.717 177.382 187.662 177.409 187.635 177.437C187.608 177.464 187.553 177.491 187.526 177.546C187.499 177.573 187.444 177.6 187.417 177.655C187.39 177.682 187.363 177.709 187.335 177.764C187.308 177.818 187.281 177.846 187.253 177.9C187.253 177.9 187.253 177.927 187.226 177.927C187.199 177.955 187.199 177.982 187.199 178.009C187.172 178.064 187.172 178.091 187.144 178.146C187.144 178.2 187.117 178.227 187.117 178.282C187.117 178.336 187.09 178.364 187.09 178.418C187.09 178.473 187.09 178.5 187.09 178.555C187.09 178.609 187.09 178.636 187.09 178.691C187.09 178.745 187.117 178.773 187.117 178.827C187.117 178.882 187.144 178.909 187.144 178.964C187.172 179.018 187.172 179.073 187.199 179.1C187.199 179.127 187.226 179.155 187.226 179.182C187.226 179.182 187.226 179.209 187.253 179.209C187.281 179.264 187.308 179.291 187.335 179.345C187.363 179.373 187.39 179.427 187.417 179.454C187.444 179.482 187.472 179.509 187.526 179.564C187.553 179.591 187.581 179.645 187.635 179.673C187.662 179.7 187.69 179.727 187.744 179.754C187.799 179.782 187.826 179.809 187.881 179.836C187.881 179.836 187.908 179.836 187.908 179.863C187.935 179.891 187.962 179.891 187.99 179.891C188.044 179.918 188.072 179.918 188.126 179.945C188.181 179.945 188.208 179.973 188.262 179.973C188.317 179.973 188.344 180 188.399 180C188.453 180 188.481 180 188.535 180C188.59 180 188.617 180 188.671 180C188.726 180 188.753 179.973 188.808 179.973C188.862 179.973 188.89 179.945 188.944 179.945C188.999 179.918 189.053 179.918 189.08 179.891C189.108 179.891 189.135 179.863 189.162 179.863C189.162 179.863 189.19 179.864 189.19 179.836C189.244 179.809 189.271 179.782 189.326 179.754C189.353 179.727 189.408 179.7 189.435 179.673C189.462 179.645 189.489 179.618 189.544 179.564C189.571 179.536 189.626 179.509 189.653 179.454C189.68 179.427 189.708 179.4 189.735 179.345C189.762 179.291 189.789 179.264 189.817 179.209C189.817 179.209 189.817 179.182 189.844 179.182C189.871 179.155 189.871 179.127 189.871 179.1C189.898 179.045 189.899 179.018 189.926 178.964C189.926 178.909 189.953 178.882 189.953 178.827C189.953 178.773 189.98 178.745 189.98 178.691C189.98 178.636 189.98 178.609 189.98 178.555C189.98 178.5 189.98 178.473 189.98 178.418C189.98 178.364 189.953 178.336 189.953 178.282Z" fill="#5E17FE"/>
<path d="M179.564 178.282C179.564 178.227 179.536 178.2 179.536 178.146C179.509 178.091 179.509 178.037 179.482 178.009C179.482 177.982 179.455 177.955 179.455 177.927C179.455 177.927 179.455 177.9 179.427 177.9C179.4 177.846 179.373 177.818 179.346 177.764C179.318 177.737 179.291 177.682 179.264 177.655C179.236 177.627 179.209 177.6 179.155 177.546C179.127 177.518 179.1 177.464 179.046 177.437C179.018 177.409 178.991 177.382 178.937 177.355C178.882 177.328 178.855 177.3 178.8 177.273C178.8 177.273 178.773 177.273 178.773 177.246C178.746 177.218 178.718 177.218 178.691 177.218C178.637 177.191 178.609 177.191 178.555 177.164C178.5 177.164 178.473 177.137 178.418 177.137C178.364 177.137 178.337 177.109 178.282 177.109C178.228 177.109 178.2 177.109 178.146 177.109C178.091 177.109 178.064 177.109 178.009 177.109C177.955 177.109 177.928 177.137 177.873 177.137C177.818 177.137 177.791 177.164 177.737 177.164C177.682 177.191 177.628 177.191 177.6 177.218C177.573 177.218 177.546 177.246 177.519 177.246C177.519 177.246 177.491 177.246 177.491 177.273C177.437 177.3 177.409 177.328 177.355 177.355C177.328 177.382 177.273 177.409 177.246 177.437C177.219 177.464 177.191 177.491 177.137 177.546C177.11 177.573 177.055 177.6 177.028 177.655C177 177.682 176.973 177.709 176.946 177.764C176.919 177.818 176.891 177.846 176.864 177.9C176.864 177.9 176.864 177.927 176.837 177.927C176.81 177.955 176.81 177.982 176.81 178.009C176.782 178.064 176.782 178.091 176.755 178.146C176.755 178.2 176.728 178.227 176.728 178.282C176.728 178.336 176.701 178.364 176.701 178.418C176.701 178.473 176.701 178.5 176.701 178.555C176.701 178.609 176.701 178.636 176.701 178.691C176.701 178.745 176.728 178.773 176.728 178.827C176.728 178.882 176.755 178.909 176.755 178.964C176.782 179.018 176.782 179.073 176.81 179.1C176.81 179.127 176.837 179.155 176.837 179.182C176.837 179.182 176.837 179.209 176.864 179.209C176.891 179.264 176.919 179.291 176.946 179.345C176.973 179.373 177 179.427 177.028 179.454C177.055 179.482 177.082 179.509 177.137 179.564C177.164 179.591 177.191 179.645 177.246 179.673C177.273 179.7 177.3 179.727 177.355 179.754C177.409 179.782 177.437 179.809 177.491 179.836C177.491 179.836 177.519 179.836 177.519 179.863C177.546 179.891 177.573 179.891 177.6 179.891C177.655 179.918 177.682 179.918 177.737 179.945C177.791 179.945 177.818 179.973 177.873 179.973C177.928 179.973 177.955 180 178.009 180C178.064 180 178.091 180 178.146 180C178.2 180 178.228 180 178.282 180C178.337 180 178.364 179.973 178.418 179.973C178.473 179.973 178.5 179.945 178.555 179.945C178.609 179.918 178.664 179.918 178.691 179.891C178.718 179.891 178.746 179.863 178.773 179.863C178.773 179.863 178.8 179.864 178.8 179.836C178.855 179.809 178.882 179.782 178.937 179.754C178.964 179.727 179.018 179.7 179.046 179.673C179.073 179.645 179.1 179.618 179.155 179.564C179.182 179.536 179.236 179.509 179.264 179.454C179.291 179.427 179.318 179.4 179.346 179.345C179.373 179.291 179.4 179.264 179.427 179.209C179.427 179.209 179.427 179.182 179.455 179.182C179.482 179.155 179.482 179.127 179.482 179.1C179.509 179.045 179.509 179.018 179.536 178.964C179.536 178.909 179.564 178.882 179.564 178.827C179.564 178.773 179.591 178.745 179.591 178.691C179.591 178.636 179.591 178.609 179.591 178.555C179.591 178.5 179.591 178.473 179.591 178.418C179.591 178.364 179.564 178.336 179.564 178.282Z" fill="#5E17FE"/>
<path d="M169.174 178.282C169.174 178.227 169.147 178.2 169.147 178.146C169.12 178.091 169.12 178.037 169.093 178.009C169.093 177.982 169.065 177.955 169.065 177.927C169.065 177.927 169.065 177.9 169.038 177.9C169.011 177.846 168.984 177.818 168.956 177.764C168.929 177.737 168.902 177.682 168.874 177.655C168.847 177.627 168.82 177.6 168.765 177.546C168.711 177.491 168.711 177.464 168.656 177.437C168.629 177.409 168.602 177.382 168.547 177.355C168.493 177.328 168.465 177.3 168.411 177.273C168.411 177.273 168.384 177.273 168.384 177.246C168.356 177.218 168.329 177.218 168.302 177.218C168.247 177.191 168.22 177.191 168.165 177.164C168.111 177.164 168.084 177.137 168.029 177.137C167.975 177.137 167.947 177.109 167.893 177.109C167.838 177.109 167.811 177.109 167.756 177.109C167.702 177.109 167.675 177.109 167.62 177.109C167.566 177.109 167.538 177.137 167.484 177.137C167.429 177.137 167.402 177.164 167.347 177.164C167.293 177.191 167.238 177.191 167.211 177.218C167.184 177.218 167.157 177.246 167.129 177.246C167.129 177.246 167.102 177.246 167.102 177.273C167.047 177.3 167.02 177.328 166.966 177.355C166.938 177.382 166.884 177.409 166.857 177.437C166.829 177.464 166.802 177.491 166.748 177.546C166.72 177.573 166.666 177.6 166.638 177.655C166.611 177.682 166.584 177.709 166.557 177.764C166.529 177.818 166.502 177.846 166.475 177.9C166.475 177.9 166.475 177.927 166.448 177.927C166.42 177.955 166.42 177.982 166.42 178.009C166.393 178.064 166.393 178.091 166.366 178.146C166.366 178.2 166.338 178.227 166.338 178.282C166.338 178.336 166.311 178.364 166.311 178.418C166.311 178.473 166.311 178.5 166.311 178.555C166.311 178.609 166.311 178.636 166.311 178.691C166.311 178.745 166.338 178.773 166.338 178.827C166.338 178.882 166.366 178.909 166.366 178.964C166.393 179.018 166.393 179.073 166.42 179.1C166.42 179.127 166.448 179.155 166.448 179.182C166.448 179.182 166.448 179.209 166.475 179.209C166.502 179.264 166.529 179.291 166.557 179.345C166.584 179.373 166.611 179.427 166.638 179.454C166.666 179.482 166.693 179.509 166.748 179.564C166.775 179.591 166.802 179.645 166.857 179.673C166.884 179.7 166.911 179.727 166.966 179.754C167.02 179.782 167.047 179.809 167.102 179.836C167.102 179.836 167.129 179.836 167.129 179.863C167.157 179.891 167.184 179.891 167.211 179.891C167.266 179.918 167.293 179.918 167.347 179.945C167.402 179.945 167.429 179.973 167.484 179.973C167.538 179.973 167.566 180 167.62 180C167.675 180 167.702 180 167.756 180C167.811 180 167.838 180 167.893 180C167.947 180 167.975 179.973 168.029 179.973C168.084 179.973 168.111 179.945 168.165 179.945C168.22 179.918 168.275 179.918 168.302 179.891C168.329 179.891 168.356 179.863 168.384 179.863C168.384 179.863 168.411 179.864 168.411 179.836C168.465 179.809 168.493 179.782 168.547 179.754C168.574 179.727 168.629 179.7 168.656 179.673C168.684 179.645 168.711 179.618 168.765 179.564C168.793 179.536 168.847 179.509 168.874 179.454C168.902 179.427 168.929 179.4 168.956 179.345C168.984 179.291 169.011 179.264 169.038 179.209C169.038 179.209 169.038 179.182 169.065 179.182C169.093 179.155 169.093 179.127 169.093 179.1C169.12 179.045 169.12 179.018 169.147 178.964C169.147 178.909 169.174 178.882 169.174 178.827C169.174 178.773 169.202 178.745 169.202 178.691C169.202 178.636 169.202 178.609 169.202 178.555C169.202 178.5 169.202 178.473 169.202 178.418C169.174 178.364 169.174 178.336 169.174 178.282Z" fill="#5E17FE"/>
<path d="M158.758 178.282C158.758 178.227 158.731 178.2 158.731 178.146C158.703 178.091 158.703 178.037 158.676 178.009C158.676 177.982 158.649 177.955 158.649 177.927C158.649 177.927 158.649 177.9 158.621 177.9C158.594 177.846 158.567 177.818 158.54 177.764C158.512 177.737 158.485 177.682 158.458 177.655C158.431 177.627 158.403 177.6 158.349 177.546C158.294 177.491 158.294 177.464 158.24 177.437C158.212 177.409 158.185 177.382 158.131 177.355C158.076 177.328 158.049 177.3 157.994 177.273C157.994 177.273 157.967 177.273 157.967 177.246C157.94 177.218 157.912 177.218 157.885 177.218C157.831 177.191 157.803 177.191 157.749 177.164C157.694 177.164 157.667 177.137 157.613 177.137C157.558 177.137 157.531 177.109 157.476 177.109C157.422 177.109 157.394 177.109 157.34 177.109C157.285 177.109 157.258 177.109 157.203 177.109C157.149 177.109 157.122 177.137 157.067 177.137C157.013 177.137 156.985 177.164 156.931 177.164C156.876 177.191 156.822 177.191 156.794 177.218C156.767 177.218 156.74 177.246 156.713 177.246C156.713 177.246 156.685 177.246 156.685 177.273C156.631 177.3 156.604 177.328 156.549 177.355C156.522 177.382 156.467 177.409 156.44 177.437C156.413 177.464 156.385 177.491 156.331 177.546C156.304 177.573 156.276 177.6 156.222 177.655C156.195 177.682 156.167 177.709 156.14 177.764C156.113 177.818 156.085 177.846 156.058 177.9C156.058 177.9 156.058 177.927 156.031 177.927C156.004 177.955 156.004 177.982 156.004 178.009C155.976 178.064 155.976 178.091 155.949 178.146C155.949 178.2 155.922 178.227 155.922 178.282C155.922 178.336 155.895 178.364 155.895 178.418C155.895 178.473 155.895 178.5 155.895 178.555C155.895 178.609 155.895 178.636 155.895 178.691C155.895 178.745 155.922 178.773 155.922 178.827C155.922 178.882 155.949 178.909 155.949 178.964C155.976 179.018 155.976 179.073 156.004 179.1C156.004 179.127 156.031 179.155 156.031 179.182C156.031 179.182 156.031 179.209 156.058 179.209C156.085 179.264 156.113 179.291 156.14 179.345C156.167 179.373 156.195 179.427 156.222 179.454C156.249 179.482 156.276 179.509 156.331 179.564C156.358 179.591 156.385 179.645 156.44 179.673C156.467 179.7 156.495 179.727 156.549 179.754C156.604 179.782 156.631 179.809 156.685 179.836C156.685 179.836 156.713 179.836 156.713 179.863C156.74 179.891 156.767 179.891 156.794 179.891C156.849 179.918 156.876 179.918 156.931 179.945C156.985 179.945 157.013 179.973 157.067 179.973C157.122 179.973 157.149 180 157.203 180C157.258 180 157.285 180 157.34 180C157.394 180 157.422 180 157.476 180C157.531 180 157.558 179.973 157.613 179.973C157.667 179.973 157.694 179.945 157.749 179.945C157.803 179.918 157.858 179.918 157.885 179.891C157.912 179.891 157.94 179.863 157.967 179.863C157.967 179.863 157.994 179.864 157.994 179.836C158.049 179.809 158.076 179.782 158.131 179.754C158.158 179.727 158.212 179.7 158.24 179.673C158.267 179.645 158.294 179.618 158.349 179.564C158.376 179.536 158.431 179.509 158.458 179.454C158.485 179.427 158.512 179.4 158.54 179.345C158.567 179.291 158.594 179.264 158.621 179.209C158.621 179.209 158.621 179.182 158.649 179.182C158.676 179.155 158.676 179.127 158.676 179.1C158.703 179.045 158.703 179.018 158.731 178.964C158.731 178.909 158.758 178.882 158.758 178.827C158.758 178.773 158.785 178.745 158.785 178.691C158.785 178.636 158.785 178.609 158.785 178.555C158.785 178.5 158.785 178.473 158.785 178.418C158.785 178.364 158.785 178.336 158.758 178.282Z" fill="#5E17FE"/>
<path d="M148.368 178.282C148.368 178.227 148.341 178.2 148.341 178.146C148.314 178.091 148.314 178.037 148.287 178.009C148.287 177.982 148.259 177.955 148.259 177.927C148.259 177.927 148.259 177.9 148.232 177.9C148.205 177.846 148.178 177.818 148.15 177.764C148.123 177.737 148.096 177.682 148.069 177.655C148.041 177.627 148.014 177.6 147.959 177.546C147.905 177.491 147.905 177.464 147.85 177.437C147.823 177.409 147.796 177.382 147.741 177.355C147.687 177.328 147.659 177.3 147.605 177.273C147.605 177.273 147.578 177.273 147.578 177.246C147.55 177.218 147.523 177.218 147.496 177.218C147.441 177.191 147.414 177.191 147.36 177.164C147.305 177.164 147.278 177.137 147.223 177.137C147.169 177.137 147.141 177.109 147.087 177.109C147.032 177.109 147.005 177.109 146.95 177.109C146.896 177.109 146.869 177.109 146.814 177.109C146.76 177.109 146.732 177.137 146.678 177.137C146.623 177.137 146.596 177.164 146.541 177.164C146.487 177.191 146.432 177.191 146.405 177.218C146.378 177.218 146.351 177.246 146.323 177.246C146.323 177.246 146.296 177.246 146.296 177.273C146.242 177.3 146.214 177.328 146.16 177.355C146.132 177.382 146.078 177.409 146.051 177.437C146.023 177.464 145.996 177.491 145.942 177.546C145.914 177.573 145.86 177.6 145.832 177.655C145.805 177.682 145.778 177.709 145.751 177.764C145.723 177.818 145.696 177.846 145.669 177.9C145.669 177.9 145.669 177.927 145.642 177.927C145.614 177.955 145.614 177.982 145.614 178.009C145.587 178.064 145.587 178.091 145.56 178.146C145.56 178.2 145.533 178.227 145.533 178.282C145.533 178.336 145.505 178.364 145.505 178.418C145.505 178.473 145.505 178.5 145.505 178.555C145.505 178.609 145.505 178.636 145.505 178.691C145.505 178.745 145.533 178.773 145.533 178.827C145.533 178.882 145.56 178.909 145.56 178.964C145.587 179.018 145.587 179.073 145.614 179.1C145.614 179.127 145.642 179.155 145.642 179.182C145.642 179.182 145.642 179.209 145.669 179.209C145.696 179.264 145.723 179.291 145.751 179.345C145.778 179.373 145.805 179.427 145.832 179.454C145.86 179.482 145.887 179.509 145.942 179.564C145.969 179.591 145.996 179.645 146.051 179.673C146.078 179.7 146.105 179.727 146.16 179.754C146.214 179.782 146.242 179.809 146.296 179.836C146.296 179.836 146.323 179.836 146.323 179.863C146.351 179.891 146.378 179.891 146.405 179.891C146.46 179.918 146.487 179.918 146.541 179.945C146.596 179.945 146.623 179.973 146.678 179.973C146.732 179.973 146.76 180 146.814 180C146.869 180 146.896 180 146.95 180C147.005 180 147.032 180 147.087 180C147.141 180 147.169 179.973 147.223 179.973C147.278 179.973 147.305 179.945 147.36 179.945C147.414 179.918 147.469 179.918 147.496 179.891C147.523 179.891 147.55 179.863 147.578 179.863C147.578 179.863 147.605 179.864 147.605 179.836C147.659 179.809 147.687 179.782 147.741 179.754C147.769 179.727 147.823 179.7 147.85 179.673C147.878 179.645 147.905 179.618 147.959 179.564C147.987 179.536 148.041 179.509 148.069 179.454C148.096 179.427 148.123 179.4 148.15 179.345C148.178 179.291 148.205 179.264 148.232 179.209C148.232 179.209 148.232 179.182 148.259 179.182C148.287 179.155 148.287 179.127 148.287 179.1C148.314 179.045 148.314 179.018 148.341 178.964C148.341 178.909 148.368 178.882 148.368 178.827C148.368 178.773 148.396 178.745 148.396 178.691C148.396 178.636 148.396 178.609 148.396 178.555C148.396 178.5 148.396 178.473 148.396 178.418C148.396 178.364 148.396 178.336 148.368 178.282Z" fill="#5E17FE"/>
<path d="M137.979 178.282C137.979 178.227 137.952 178.2 137.952 178.146C137.925 178.091 137.924 178.037 137.897 178.009C137.897 177.982 137.87 177.955 137.87 177.927C137.87 177.927 137.87 177.9 137.843 177.9C137.815 177.846 137.788 177.818 137.761 177.764C137.734 177.737 137.706 177.682 137.679 177.655C137.652 177.627 137.625 177.6 137.57 177.546C137.515 177.491 137.515 177.464 137.461 177.437C137.434 177.409 137.406 177.382 137.352 177.355C137.297 177.328 137.27 177.3 137.216 177.273C137.216 177.273 137.188 177.273 137.188 177.246C137.161 177.218 137.134 177.218 137.106 177.218C137.052 177.191 137.025 177.191 136.97 177.164C136.916 177.164 136.888 177.137 136.834 177.137C136.779 177.137 136.752 177.109 136.697 177.109C136.643 177.109 136.616 177.109 136.561 177.109C136.507 177.109 136.479 177.109 136.425 177.109C136.37 177.109 136.343 177.137 136.288 177.137C136.234 177.137 136.207 177.164 136.152 177.164C136.097 177.191 136.043 177.191 136.016 177.218C135.988 177.218 135.961 177.246 135.934 177.246C135.934 177.246 135.907 177.246 135.907 177.273C135.852 177.3 135.825 177.328 135.77 177.355C135.743 177.382 135.688 177.409 135.661 177.437C135.634 177.464 135.607 177.491 135.552 177.546C135.525 177.573 135.47 177.6 135.443 177.655C135.416 177.682 135.389 177.709 135.361 177.764C135.334 177.818 135.307 177.846 135.279 177.9C135.279 177.9 135.279 177.927 135.252 177.927C135.225 177.955 135.225 177.982 135.225 178.009C135.198 178.064 135.198 178.091 135.17 178.146C135.17 178.2 135.143 178.227 135.143 178.282C135.143 178.336 135.116 178.364 135.116 178.418C135.116 178.473 135.116 178.5 135.116 178.555C135.116 178.609 135.116 178.636 135.116 178.691C135.116 178.745 135.143 178.773 135.143 178.827C135.143 178.882 135.17 178.909 135.17 178.964C135.198 179.018 135.198 179.073 135.225 179.1C135.225 179.127 135.252 179.155 135.252 179.182C135.252 179.182 135.252 179.209 135.279 179.209C135.307 179.264 135.334 179.291 135.361 179.345C135.389 179.373 135.416 179.427 135.443 179.454C135.47 179.482 135.498 179.509 135.552 179.564C135.579 179.591 135.607 179.645 135.661 179.673C135.688 179.7 135.716 179.727 135.77 179.754C135.825 179.782 135.852 179.809 135.907 179.836C135.907 179.836 135.934 179.836 135.934 179.863C135.961 179.891 135.988 179.891 136.016 179.891C136.07 179.918 136.097 179.918 136.152 179.945C136.207 179.945 136.234 179.973 136.288 179.973C136.343 179.973 136.37 180 136.425 180C136.479 180 136.507 180 136.561 180C136.616 180 136.643 180 136.697 180C136.752 180 136.779 179.973 136.834 179.973C136.888 179.973 136.916 179.945 136.97 179.945C137.025 179.918 137.079 179.918 137.106 179.891C137.134 179.891 137.161 179.863 137.188 179.863C137.188 179.863 137.216 179.864 137.216 179.836C137.27 179.809 137.297 179.782 137.352 179.754C137.379 179.727 137.434 179.7 137.461 179.673C137.488 179.645 137.515 179.618 137.57 179.564C137.597 179.536 137.652 179.509 137.679 179.454C137.706 179.427 137.734 179.4 137.761 179.345C137.788 179.291 137.815 179.264 137.843 179.209C137.843 179.209 137.843 179.182 137.87 179.182C137.897 179.155 137.897 179.127 137.897 179.1C137.924 179.045 137.925 179.018 137.952 178.964C137.952 178.909 137.979 178.882 137.979 178.827C137.979 178.773 138.006 178.745 138.006 178.691C138.006 178.636 138.006 178.609 138.006 178.555C138.006 178.5 138.006 178.473 138.006 178.418C138.006 178.364 137.979 178.336 137.979 178.282Z" fill="#5E17FE"/>
<path d="M127.59 178.282C127.59 178.227 127.562 178.2 127.562 178.146C127.535 178.091 127.535 178.037 127.508 178.009C127.508 177.982 127.481 177.955 127.481 177.927C127.481 177.927 127.481 177.9 127.453 177.9C127.426 177.846 127.399 177.818 127.372 177.764C127.344 177.737 127.317 177.682 127.29 177.655C127.263 177.627 127.235 177.6 127.181 177.546C127.126 177.491 127.126 177.464 127.072 177.437C127.044 177.409 127.017 177.382 126.963 177.355C126.908 177.328 126.881 177.3 126.826 177.273C126.826 177.273 126.799 177.273 126.799 177.246C126.772 177.218 126.744 177.218 126.717 177.218C126.663 177.191 126.635 177.191 126.581 177.164C126.526 177.164 126.499 177.137 126.444 177.137C126.39 177.137 126.363 177.109 126.308 177.109C126.254 177.109 126.226 177.109 126.172 177.109C126.117 177.109 126.09 177.109 126.035 177.109C125.981 177.109 125.954 177.137 125.899 177.137C125.845 177.137 125.817 177.164 125.763 177.164C125.708 177.191 125.654 177.191 125.626 177.218C125.599 177.218 125.572 177.246 125.545 177.246C125.545 177.246 125.517 177.246 125.517 177.273C125.463 177.3 125.436 177.328 125.381 177.355C125.354 177.382 125.299 177.409 125.272 177.437C125.245 177.464 125.217 177.491 125.163 177.546C125.136 177.573 125.081 177.6 125.054 177.655C125.027 177.682 124.999 177.709 124.972 177.764C124.945 177.818 124.917 177.846 124.89 177.9C124.89 177.9 124.89 177.927 124.863 177.927C124.836 177.955 124.836 177.982 124.836 178.009C124.808 178.064 124.808 178.091 124.781 178.146C124.781 178.2 124.754 178.227 124.754 178.282C124.754 178.336 124.727 178.364 124.727 178.418C124.727 178.473 124.727 178.5 124.727 178.555C124.727 178.609 124.727 178.636 124.727 178.691C124.727 178.745 124.754 178.773 124.754 178.827C124.754 178.882 124.781 178.909 124.781 178.964C124.808 179.018 124.808 179.073 124.836 179.1C124.836 179.127 124.863 179.155 124.863 179.182C124.863 179.182 124.863 179.209 124.89 179.209C124.917 179.264 124.945 179.291 124.972 179.345C124.999 179.373 125.027 179.427 125.054 179.454C125.081 179.482 125.108 179.509 125.163 179.564C125.19 179.591 125.217 179.645 125.272 179.673C125.299 179.7 125.326 179.727 125.381 179.754C125.436 179.782 125.463 179.809 125.517 179.836C125.517 179.836 125.545 179.836 125.545 179.863C125.572 179.891 125.599 179.891 125.626 179.891C125.681 179.918 125.708 179.918 125.763 179.945C125.817 179.945 125.845 179.973 125.899 179.973C125.954 179.973 125.981 180 126.035 180C126.09 180 126.117 180 126.172 180C126.226 180 126.254 180 126.308 180C126.363 180 126.39 179.973 126.444 179.973C126.499 179.973 126.526 179.945 126.581 179.945C126.635 179.918 126.69 179.918 126.717 179.891C126.744 179.891 126.772 179.863 126.799 179.863C126.799 179.863 126.826 179.864 126.826 179.836C126.881 179.809 126.908 179.782 126.963 179.754C126.99 179.727 127.044 179.7 127.072 179.673C127.099 179.645 127.126 179.618 127.181 179.564C127.208 179.536 127.263 179.509 127.29 179.454C127.317 179.427 127.344 179.4 127.372 179.345C127.399 179.291 127.426 179.264 127.453 179.209C127.453 179.209 127.453 179.182 127.481 179.182C127.508 179.155 127.508 179.127 127.508 179.1C127.535 179.045 127.535 179.018 127.562 178.964C127.562 178.909 127.59 178.882 127.59 178.827C127.59 178.773 127.617 178.745 127.617 178.691C127.617 178.636 127.617 178.609 127.617 178.555C127.617 178.5 127.617 178.473 127.617 178.418C127.617 178.364 127.59 178.336 127.59 178.282Z" fill="#5E17FE"/>
<path d="M117.2 178.282C117.2 178.227 117.173 178.2 117.173 178.146C117.146 178.091 117.146 178.037 117.119 178.009C117.119 177.982 117.091 177.955 117.091 177.927C117.091 177.927 117.091 177.9 117.064 177.9C117.037 177.846 117.01 177.818 116.982 177.764C116.955 177.737 116.928 177.682 116.9 177.655C116.873 177.627 116.846 177.6 116.791 177.546C116.737 177.491 116.737 177.464 116.682 177.437C116.655 177.409 116.628 177.382 116.573 177.355C116.519 177.328 116.491 177.3 116.437 177.273C116.437 177.273 116.41 177.273 116.41 177.246C116.382 177.218 116.355 177.218 116.328 177.218C116.273 177.191 116.246 177.191 116.191 177.164C116.137 177.164 116.11 177.137 116.055 177.137C116.001 177.137 115.973 177.109 115.919 177.109C115.864 177.109 115.837 177.109 115.782 177.109C115.728 177.109 115.701 177.109 115.646 177.109C115.592 177.109 115.564 177.137 115.51 177.137C115.455 177.137 115.428 177.164 115.373 177.164C115.319 177.191 115.264 177.191 115.237 177.218C115.21 177.218 115.183 177.246 115.155 177.246C115.155 177.246 115.128 177.246 115.128 177.273C115.073 177.3 115.046 177.328 114.992 177.355C114.964 177.382 114.91 177.409 114.883 177.437C114.855 177.464 114.801 177.491 114.774 177.546C114.746 177.573 114.692 177.6 114.664 177.655C114.637 177.682 114.61 177.709 114.583 177.764C114.555 177.818 114.528 177.846 114.501 177.9C114.501 177.9 114.501 177.927 114.474 177.927C114.446 177.955 114.446 177.982 114.446 178.009C114.419 178.064 114.419 178.091 114.392 178.146C114.392 178.2 114.365 178.227 114.365 178.282C114.365 178.336 114.337 178.364 114.337 178.418C114.337 178.473 114.337 178.5 114.337 178.555C114.337 178.609 114.337 178.636 114.337 178.691C114.337 178.745 114.365 178.773 114.365 178.827C114.365 178.882 114.392 178.909 114.392 178.964C114.419 179.018 114.419 179.073 114.446 179.1C114.446 179.127 114.474 179.155 114.474 179.182C114.474 179.182 114.474 179.209 114.501 179.209C114.528 179.264 114.555 179.291 114.583 179.345C114.61 179.373 114.637 179.427 114.664 179.454C114.692 179.482 114.719 179.509 114.774 179.564C114.801 179.591 114.828 179.645 114.883 179.673C114.91 179.7 114.937 179.727 114.992 179.754C115.046 179.782 115.073 179.809 115.128 179.836C115.128 179.836 115.155 179.836 115.155 179.863C115.183 179.891 115.21 179.891 115.237 179.891C115.292 179.918 115.319 179.918 115.373 179.945C115.428 179.945 115.455 179.973 115.51 179.973C115.564 179.973 115.592 180 115.646 180C115.701 180 115.728 180 115.782 180C115.837 180 115.864 180 115.919 180C115.973 180 116.001 179.973 116.055 179.973C116.11 179.973 116.137 179.945 116.191 179.945C116.246 179.918 116.301 179.918 116.328 179.891C116.355 179.891 116.382 179.863 116.41 179.863C116.41 179.863 116.437 179.864 116.437 179.836C116.491 179.809 116.519 179.782 116.573 179.754C116.601 179.727 116.655 179.7 116.682 179.673C116.71 179.645 116.737 179.618 116.791 179.564C116.819 179.536 116.873 179.509 116.9 179.454C116.928 179.427 116.955 179.4 116.982 179.345C117.01 179.291 117.037 179.264 117.064 179.209C117.064 179.209 117.064 179.182 117.091 179.182C117.119 179.155 117.119 179.127 117.119 179.1C117.146 179.045 117.146 179.018 117.173 178.964C117.173 178.909 117.2 178.882 117.2 178.827C117.2 178.773 117.228 178.745 117.228 178.691C117.228 178.636 117.228 178.609 117.228 178.555C117.228 178.5 117.228 178.473 117.228 178.418C117.228 178.364 117.2 178.336 117.2 178.282Z" fill="#5E17FE"/>
<path d="M106.784 178.282C106.784 178.227 106.757 178.2 106.757 178.146C106.729 178.091 106.729 178.037 106.702 178.009C106.702 177.982 106.675 177.955 106.675 177.927C106.675 177.927 106.675 177.9 106.648 177.9C106.62 177.846 106.593 177.818 106.566 177.764C106.538 177.737 106.511 177.682 106.484 177.655C106.457 177.627 106.429 177.6 106.375 177.546C106.348 177.518 106.32 177.464 106.266 177.437C106.238 177.409 106.211 177.382 106.157 177.355C106.102 177.328 106.075 177.3 106.02 177.273C106.02 177.273 105.993 177.273 105.993 177.246C105.966 177.218 105.939 177.218 105.911 177.218C105.857 177.191 105.829 177.191 105.775 177.164C105.72 177.164 105.693 177.137 105.639 177.137C105.584 177.137 105.557 177.109 105.502 177.109C105.448 177.109 105.42 177.109 105.366 177.109C105.311 177.109 105.284 177.109 105.23 177.109C105.175 177.109 105.148 177.137 105.093 177.137C105.039 177.137 105.011 177.164 104.957 177.164C104.902 177.191 104.848 177.191 104.821 177.218C104.793 177.218 104.766 177.246 104.739 177.246C104.739 177.246 104.711 177.246 104.711 177.273C104.657 177.3 104.63 177.328 104.575 177.355C104.548 177.382 104.493 177.409 104.466 177.437C104.439 177.464 104.411 177.491 104.357 177.546C104.33 177.573 104.275 177.6 104.248 177.655C104.221 177.682 104.193 177.709 104.166 177.764C104.139 177.818 104.112 177.846 104.084 177.9C104.084 177.9 104.084 177.927 104.057 177.927C104.03 177.955 104.03 177.982 104.03 178.009C104.002 178.064 104.002 178.091 103.975 178.146C103.975 178.2 103.948 178.227 103.948 178.282C103.948 178.336 103.921 178.364 103.921 178.418C103.921 178.473 103.921 178.5 103.921 178.555C103.921 178.609 103.921 178.636 103.921 178.691C103.921 178.745 103.948 178.773 103.948 178.827C103.948 178.882 103.975 178.909 103.975 178.964C104.002 179.018 104.002 179.073 104.03 179.1C104.03 179.127 104.057 179.155 104.057 179.182C104.057 179.182 104.057 179.209 104.084 179.209C104.112 179.264 104.139 179.291 104.166 179.345C104.193 179.373 104.221 179.427 104.248 179.454C104.275 179.482 104.302 179.509 104.357 179.564C104.384 179.591 104.411 179.645 104.466 179.673C104.493 179.7 104.521 179.727 104.575 179.754C104.63 179.782 104.657 179.809 104.711 179.836C104.711 179.836 104.739 179.836 104.739 179.863C104.766 179.891 104.793 179.891 104.821 179.891C104.875 179.918 104.902 179.918 104.957 179.945C105.011 179.945 105.039 179.973 105.093 179.973C105.148 179.973 105.175 180 105.23 180C105.284 180 105.311 180 105.366 180C105.42 180 105.448 180 105.502 180C105.557 180 105.584 179.973 105.639 179.973C105.693 179.973 105.72 179.945 105.775 179.945C105.829 179.918 105.884 179.918 105.911 179.891C105.939 179.891 105.966 179.863 105.993 179.863C105.993 179.863 106.02 179.864 106.02 179.836C106.075 179.809 106.102 179.782 106.157 179.754C106.184 179.727 106.238 179.7 106.266 179.673C106.293 179.645 106.32 179.618 106.375 179.564C106.402 179.536 106.457 179.509 106.484 179.454C106.511 179.427 106.538 179.4 106.566 179.345C106.593 179.291 106.62 179.264 106.648 179.209C106.648 179.209 106.648 179.182 106.675 179.182C106.702 179.155 106.702 179.127 106.702 179.1C106.729 179.045 106.729 179.018 106.757 178.964C106.757 178.909 106.784 178.882 106.784 178.827C106.784 178.773 106.811 178.745 106.811 178.691C106.811 178.636 106.811 178.609 106.811 178.555C106.811 178.5 106.811 178.473 106.811 178.418C106.811 178.364 106.811 178.336 106.784 178.282Z" fill="#5E17FE"/>
<path d="M96.3945 178.282C96.3945 178.227 96.3673 178.2 96.3673 178.146C96.34 178.091 96.34 178.037 96.3127 178.009C96.3127 177.982 96.2854 177.955 96.2854 177.927C96.2854 177.927 96.2854 177.9 96.2582 177.9C96.2309 177.846 96.2036 177.818 96.1764 177.764C96.1491 177.737 96.1218 177.682 96.0946 177.655C96.0673 177.627 96.04 177.6 95.9855 177.546C95.9309 177.491 95.9309 177.464 95.8764 177.437C95.8491 177.409 95.8219 177.382 95.7673 177.355C95.7128 177.328 95.6855 177.3 95.631 177.273C95.631 177.273 95.6037 177.273 95.6037 177.246C95.5764 177.218 95.5492 177.218 95.5219 177.218C95.4674 177.191 95.4401 177.191 95.3856 177.164C95.331 177.164 95.3037 177.137 95.2492 177.137C95.1947 177.137 95.1674 177.109 95.1129 177.109C95.0583 177.109 95.0311 177.109 94.9765 177.109C94.922 177.109 94.8947 177.109 94.8402 177.109C94.7856 177.109 94.7584 177.137 94.7038 177.137C94.6493 177.137 94.622 177.164 94.5675 177.164C94.513 177.191 94.4584 177.191 94.4312 177.218C94.4039 177.218 94.3766 177.246 94.3494 177.246C94.3494 177.246 94.3221 177.246 94.3221 177.273C94.2676 177.3 94.2403 177.328 94.1858 177.355C94.1585 177.382 94.104 177.409 94.0767 177.437C94.0494 177.464 94.0221 177.491 93.9676 177.546C93.9403 177.573 93.9131 177.6 93.8585 177.655C93.8313 177.682 93.804 177.709 93.7767 177.764C93.7495 177.818 93.7222 177.846 93.6949 177.9C93.6949 177.9 93.6949 177.927 93.6677 177.927C93.6404 177.955 93.6404 177.982 93.6404 178.009C93.6131 178.064 93.6131 178.091 93.5858 178.146C93.5858 178.2 93.5586 178.227 93.5586 178.282C93.5586 178.336 93.5313 178.364 93.5313 178.418C93.5313 178.473 93.5313 178.5 93.5313 178.555C93.5313 178.609 93.5313 178.636 93.5313 178.691C93.5313 178.745 93.5586 178.773 93.5586 178.827C93.5586 178.882 93.5858 178.909 93.5858 178.964C93.6131 179.018 93.6131 179.073 93.6404 179.1C93.6404 179.127 93.6677 179.155 93.6677 179.182C93.6677 179.182 93.6676 179.209 93.6949 179.209C93.7222 179.264 93.7495 179.291 93.7767 179.345C93.804 179.373 93.8313 179.427 93.8585 179.454C93.8858 179.482 93.9131 179.509 93.9676 179.564C93.9949 179.591 94.0221 179.645 94.0767 179.673C94.104 179.7 94.1312 179.727 94.1858 179.754C94.2403 179.782 94.2676 179.809 94.3221 179.836C94.3221 179.836 94.3494 179.836 94.3494 179.863C94.3766 179.891 94.4039 179.891 94.4312 179.891C94.4857 179.918 94.513 179.918 94.5675 179.945C94.622 179.945 94.6493 179.973 94.7038 179.973C94.7584 179.973 94.7856 180 94.8402 180C94.8947 180 94.922 180 94.9765 180C95.0311 180 95.0583 180 95.1129 180C95.1674 180 95.1947 179.973 95.2492 179.973C95.3037 179.973 95.331 179.945 95.3856 179.945C95.4401 179.918 95.4946 179.918 95.5219 179.891C95.5492 179.891 95.5764 179.863 95.6037 179.863C95.6037 179.863 95.631 179.864 95.631 179.836C95.6855 179.809 95.7128 179.782 95.7673 179.754C95.7946 179.727 95.8491 179.7 95.8764 179.673C95.9037 179.645 95.9309 179.618 95.9855 179.564C96.0128 179.536 96.0673 179.509 96.0946 179.454C96.1218 179.427 96.1491 179.4 96.1764 179.345C96.2036 179.291 96.2309 179.264 96.2582 179.209C96.2582 179.209 96.2582 179.182 96.2854 179.182C96.3127 179.155 96.3127 179.127 96.3127 179.1C96.34 179.045 96.34 179.018 96.3673 178.964C96.3673 178.909 96.3945 178.882 96.3945 178.827C96.3945 178.773 96.4218 178.745 96.4218 178.691C96.4218 178.636 96.4218 178.609 96.4218 178.555C96.4218 178.5 96.4218 178.473 96.4218 178.418C96.4218 178.364 96.4218 178.336 96.3945 178.282Z" fill="#5E17FE"/>
<path d="M86.0052 178.282C86.0052 178.227 85.9779 178.2 85.9779 178.146C85.9506 178.091 85.9506 178.037 85.9234 178.009C85.9234 177.982 85.8961 177.955 85.8961 177.927C85.8961 177.927 85.8961 177.9 85.8688 177.9C85.8416 177.846 85.8143 177.818 85.787 177.764C85.7597 177.737 85.7325 177.682 85.7052 177.655C85.6779 177.627 85.6507 177.6 85.5961 177.546C85.5416 177.491 85.5416 177.464 85.4871 177.437C85.4598 177.409 85.4325 177.382 85.378 177.355C85.3234 177.328 85.2962 177.3 85.2416 177.273C85.2416 177.273 85.2144 177.273 85.2144 177.246C85.1871 177.218 85.1598 177.218 85.1326 177.218C85.078 177.191 85.0507 177.191 84.9962 177.164C84.9417 177.164 84.9144 177.137 84.8599 177.137C84.8053 177.137 84.7781 177.109 84.7235 177.109C84.669 177.109 84.6417 177.109 84.5872 177.109C84.5326 177.109 84.5054 177.109 84.4508 177.109C84.3963 177.109 84.369 177.137 84.3145 177.137C84.26 177.137 84.2327 177.164 84.1782 177.164C84.1236 177.191 84.0691 177.191 84.0418 177.218C84.0145 177.218 83.9873 177.246 83.96 177.246C83.96 177.246 83.9327 177.246 83.9327 177.273C83.8782 177.3 83.8509 177.328 83.7964 177.355C83.7691 177.382 83.7146 177.409 83.6873 177.437C83.6601 177.464 83.6328 177.491 83.5783 177.546C83.551 177.573 83.5237 177.6 83.4692 177.655C83.4419 177.682 83.4146 177.709 83.3874 177.764C83.3601 177.818 83.3328 177.846 83.3056 177.9C83.3056 177.9 83.3056 177.927 83.2783 177.927C83.251 177.955 83.251 177.982 83.251 178.009C83.2237 178.064 83.2238 178.091 83.1965 178.146C83.1965 178.2 83.1692 178.227 83.1692 178.282C83.1692 178.336 83.142 178.364 83.142 178.418C83.142 178.473 83.142 178.5 83.142 178.555C83.142 178.609 83.142 178.636 83.142 178.691C83.142 178.745 83.1692 178.773 83.1692 178.827C83.1692 178.882 83.1965 178.909 83.1965 178.964C83.2238 179.018 83.2237 179.073 83.251 179.1C83.251 179.127 83.2783 179.155 83.2783 179.182C83.2783 179.182 83.2783 179.209 83.3056 179.209C83.3328 179.264 83.3601 179.291 83.3874 179.345C83.4146 179.373 83.4419 179.427 83.4692 179.454C83.4964 179.482 83.5237 179.509 83.5783 179.564C83.6055 179.591 83.6328 179.645 83.6873 179.673C83.7146 179.7 83.7419 179.727 83.7964 179.754C83.8509 179.782 83.8782 179.809 83.9327 179.836C83.9327 179.836 83.96 179.836 83.96 179.863C83.9873 179.891 84.0145 179.891 84.0418 179.891C84.0963 179.918 84.1236 179.918 84.1782 179.945C84.2327 179.945 84.26 179.973 84.3145 179.973C84.369 179.973 84.3963 180 84.4508 180C84.5054 180 84.5326 180 84.5872 180C84.6417 180 84.669 180 84.7235 180C84.7781 180 84.8053 179.973 84.8599 179.973C84.9144 179.973 84.9417 179.945 84.9962 179.945C85.0507 179.918 85.1053 179.918 85.1326 179.891C85.1598 179.891 85.1871 179.863 85.2144 179.863C85.2144 179.863 85.2416 179.864 85.2416 179.836C85.2962 179.809 85.3234 179.782 85.378 179.754C85.4052 179.727 85.4598 179.7 85.4871 179.673C85.5143 179.645 85.5416 179.618 85.5961 179.564C85.6234 179.536 85.6779 179.509 85.7052 179.454C85.7325 179.427 85.7597 179.4 85.787 179.345C85.8143 179.291 85.8416 179.264 85.8688 179.209C85.8688 179.209 85.8688 179.182 85.8961 179.182C85.9234 179.155 85.9234 179.127 85.9234 179.1C85.9506 179.045 85.9506 179.018 85.9779 178.964C85.9779 178.909 86.0052 178.882 86.0052 178.827C86.0052 178.773 86.0324 178.745 86.0324 178.691C86.0324 178.636 86.0324 178.609 86.0324 178.555C86.0324 178.5 86.0324 178.473 86.0324 178.418C86.0324 178.364 86.0052 178.336 86.0052 178.282Z" fill="#5E17FE"/>
<path d="M75.6158 178.282C75.6158 178.227 75.5885 178.2 75.5885 178.146C75.5612 178.091 75.5612 178.037 75.534 178.009C75.534 177.982 75.5067 177.955 75.5067 177.927C75.5067 177.927 75.5067 177.9 75.4794 177.9C75.4522 177.846 75.4249 177.818 75.3976 177.764C75.3704 177.737 75.3431 177.682 75.3158 177.655C75.2885 177.627 75.2613 177.6 75.2067 177.546C75.1795 177.518 75.1522 177.464 75.0977 177.437C75.0704 177.409 75.0431 177.382 74.9886 177.355C74.9341 177.328 74.9068 177.3 74.8523 177.273C74.8523 177.273 74.825 177.273 74.825 177.246C74.7977 177.218 74.7705 177.218 74.7432 177.218C74.6886 177.191 74.6614 177.191 74.6068 177.164C74.5523 177.164 74.525 177.137 74.4705 177.137C74.416 177.137 74.3887 177.109 74.3342 177.109C74.2796 177.109 74.2523 177.109 74.1978 177.109C74.1433 177.109 74.116 177.109 74.0615 177.109C74.0069 177.109 73.9797 177.137 73.9251 177.137C73.8706 177.137 73.8433 177.164 73.7888 177.164C73.7342 177.191 73.6797 177.191 73.6524 177.218C73.6252 177.218 73.5979 177.246 73.5706 177.246C73.5706 177.246 73.5434 177.246 73.5434 177.273C73.4888 177.3 73.4616 177.328 73.407 177.355C73.3797 177.382 73.3252 177.409 73.2979 177.437C73.2707 177.464 73.2434 177.491 73.1889 177.546C73.1616 177.573 73.1071 177.6 73.0798 177.655C73.0525 177.682 73.0253 177.709 72.998 177.764C72.9707 177.818 72.9435 177.846 72.9162 177.9C72.9162 177.9 72.9162 177.927 72.8889 177.927C72.8616 177.955 72.8616 177.982 72.8616 178.009C72.8344 178.064 72.8344 178.091 72.8071 178.146C72.8071 178.2 72.7799 178.227 72.7799 178.282C72.7799 178.336 72.7526 178.364 72.7526 178.418C72.7526 178.473 72.7526 178.5 72.7526 178.555C72.7526 178.609 72.7526 178.636 72.7526 178.691C72.7526 178.745 72.7799 178.773 72.7799 178.827C72.7799 178.882 72.8071 178.909 72.8071 178.964C72.8344 179.018 72.8344 179.073 72.8616 179.1C72.8616 179.127 72.8889 179.155 72.8889 179.182C72.8889 179.182 72.8889 179.209 72.9162 179.209C72.9435 179.264 72.9707 179.291 72.998 179.345C73.0253 179.373 73.0525 179.427 73.0798 179.454C73.1071 179.482 73.1344 179.509 73.1889 179.564C73.2162 179.591 73.2434 179.645 73.2979 179.673C73.3252 179.7 73.3525 179.727 73.407 179.754C73.4616 179.782 73.4888 179.809 73.5434 179.836C73.5434 179.836 73.5706 179.836 73.5706 179.863C73.5979 179.891 73.6252 179.891 73.6524 179.891C73.707 179.918 73.7342 179.918 73.7888 179.945C73.8433 179.945 73.8706 179.973 73.9251 179.973C73.9797 179.973 74.0069 180 74.0615 180C74.116 180 74.1433 180 74.1978 180C74.2523 180 74.2796 180 74.3342 180C74.3887 180 74.416 179.973 74.4705 179.973C74.525 179.973 74.5523 179.945 74.6068 179.945C74.6614 179.918 74.7159 179.918 74.7432 179.891C74.7705 179.891 74.7977 179.863 74.825 179.863C74.825 179.863 74.8523 179.864 74.8523 179.836C74.9068 179.809 74.9341 179.782 74.9886 179.754C75.0159 179.727 75.0704 179.7 75.0977 179.673C75.125 179.645 75.1522 179.618 75.2067 179.564C75.234 179.536 75.2885 179.509 75.3158 179.454C75.3431 179.427 75.3704 179.4 75.3976 179.345C75.4249 179.291 75.4522 179.264 75.4794 179.209C75.4794 179.209 75.4795 179.182 75.5067 179.182C75.534 179.155 75.534 179.127 75.534 179.1C75.5612 179.045 75.5612 179.018 75.5885 178.964C75.5885 178.909 75.6158 178.882 75.6158 178.827C75.6158 178.773 75.6431 178.745 75.6431 178.691C75.6431 178.636 75.6431 178.609 75.6431 178.555C75.6431 178.5 75.6431 178.473 75.6431 178.418C75.6431 178.364 75.6158 178.336 75.6158 178.282Z" fill="#5E17FE"/>
<path d="M65.2265 178.282C65.2265 178.227 65.1992 178.2 65.1992 178.146C65.172 178.091 65.172 178.037 65.1447 178.009C65.1447 177.982 65.1174 177.955 65.1174 177.927C65.1174 177.927 65.1174 177.9 65.0901 177.9C65.0629 177.846 65.0356 177.818 65.0084 177.764C64.9811 177.737 64.9538 177.682 64.9265 177.655C64.8993 177.627 64.872 177.6 64.8175 177.546C64.7902 177.518 64.7629 177.464 64.7084 177.437C64.6811 177.409 64.6539 177.382 64.5993 177.355C64.5448 177.328 64.5175 177.3 64.463 177.273C64.463 177.273 64.4357 177.273 64.4357 177.246C64.4084 177.218 64.3812 177.218 64.3539 177.218C64.2994 177.191 64.2721 177.191 64.2176 177.164C64.163 177.164 64.1358 177.137 64.0812 177.137C64.0267 177.137 63.9994 177.109 63.9449 177.109C63.8903 177.109 63.8631 177.109 63.8085 177.109C63.754 177.109 63.7267 177.109 63.6722 177.109C63.6177 177.109 63.5904 177.137 63.5358 177.137C63.4813 177.137 63.454 177.164 63.3995 177.164C63.345 177.191 63.2904 177.191 63.2632 177.218C63.2359 177.218 63.2086 177.246 63.1813 177.246C63.1813 177.246 63.1541 177.246 63.1541 177.273C63.0995 177.3 63.0723 177.328 63.0177 177.355C62.9905 177.382 62.9359 177.409 62.9087 177.437C62.8814 177.464 62.8541 177.491 62.7996 177.546C62.7723 177.573 62.7451 177.6 62.6905 177.655C62.6633 177.682 62.636 177.709 62.6087 177.764C62.5814 177.818 62.5542 177.846 62.5269 177.9C62.5269 177.9 62.5269 177.927 62.4996 177.927C62.4724 177.955 62.4724 177.982 62.4724 178.009C62.4451 178.064 62.4451 178.091 62.4178 178.146C62.4178 178.2 62.3905 178.227 62.3905 178.282C62.3905 178.336 62.3633 178.364 62.3633 178.418C62.3633 178.473 62.3633 178.5 62.3633 178.555C62.3633 178.609 62.3633 178.636 62.3633 178.691C62.3633 178.745 62.3905 178.773 62.3905 178.827C62.3905 178.882 62.4178 178.909 62.4178 178.964C62.4451 179.018 62.4451 179.073 62.4724 179.1C62.4724 179.127 62.4996 179.155 62.4996 179.182C62.4996 179.182 62.4996 179.209 62.5269 179.209C62.5542 179.264 62.5814 179.291 62.6087 179.345C62.636 179.373 62.6633 179.427 62.6905 179.454C62.7178 179.482 62.745 179.509 62.7996 179.564C62.8268 179.591 62.8541 179.645 62.9087 179.673C62.9359 179.7 62.9632 179.727 63.0177 179.754C63.0723 179.782 63.0995 179.809 63.1541 179.836C63.1541 179.836 63.1813 179.836 63.1813 179.863C63.2086 179.891 63.2359 179.891 63.2632 179.891C63.3177 179.918 63.345 179.918 63.3995 179.945C63.454 179.945 63.4813 179.973 63.5358 179.973C63.5904 179.973 63.6177 180 63.6722 180C63.7267 180 63.754 180 63.8085 180C63.8631 180 63.8903 180 63.9449 180C63.9994 180 64.0267 179.973 64.0812 179.973C64.1358 179.973 64.163 179.945 64.2176 179.945C64.2721 179.918 64.3266 179.918 64.3539 179.891C64.3812 179.891 64.4084 179.863 64.4357 179.863C64.4357 179.863 64.463 179.864 64.463 179.836C64.5175 179.809 64.5448 179.782 64.5993 179.754C64.6266 179.727 64.6811 179.7 64.7084 179.673C64.7356 179.645 64.7629 179.618 64.8175 179.564C64.8447 179.536 64.8993 179.509 64.9265 179.454C64.9538 179.427 64.9811 179.4 65.0084 179.345C65.0356 179.291 65.0629 179.264 65.0901 179.209C65.0901 179.209 65.0901 179.182 65.1174 179.182C65.1447 179.155 65.1447 179.127 65.1447 179.1C65.172 179.045 65.172 179.018 65.1992 178.964C65.1992 178.909 65.2265 178.882 65.2265 178.827C65.2265 178.773 65.2537 178.745 65.2537 178.691C65.2537 178.636 65.2537 178.609 65.2537 178.555C65.2537 178.5 65.2537 178.473 65.2537 178.418C65.2265 178.364 65.2265 178.336 65.2265 178.282Z" fill="#5E17FE"/>
<path d="M54.8371 178.282C54.8371 178.227 54.8099 178.2 54.8099 178.146C54.7826 178.091 54.7826 178.037 54.7553 178.009C54.7553 177.982 54.7281 177.955 54.7281 177.927C54.7281 177.927 54.7281 177.9 54.7008 177.9C54.6735 177.846 54.6462 177.818 54.619 177.764C54.5917 177.737 54.5645 177.682 54.5372 177.655C54.5099 177.627 54.4826 177.6 54.4281 177.546C54.3736 177.491 54.3736 177.464 54.319 177.437C54.2918 177.409 54.2645 177.382 54.2099 177.355C54.1554 177.328 54.1281 177.3 54.0736 177.273C54.0736 177.273 54.0463 177.273 54.0463 177.246C54.0191 177.218 53.9918 177.218 53.9646 177.218C53.91 177.191 53.8828 177.191 53.8282 177.164C53.7737 177.164 53.7464 177.137 53.6919 177.137C53.6373 177.137 53.6101 177.109 53.5555 177.109C53.501 177.109 53.4737 177.109 53.4192 177.109C53.3646 177.109 53.3374 177.109 53.2828 177.109C53.2283 177.109 53.201 177.137 53.1465 177.137C53.092 177.137 53.0647 177.164 53.0102 177.164C52.9556 177.191 52.9011 177.191 52.8738 177.218C52.8465 177.218 52.8193 177.246 52.792 177.246C52.792 177.246 52.7647 177.246 52.7647 177.273C52.7102 177.3 52.6829 177.328 52.6284 177.355C52.6011 177.382 52.5466 177.409 52.5193 177.437C52.492 177.464 52.4648 177.491 52.4102 177.546C52.383 177.573 52.3557 177.6 52.3011 177.655C52.2739 177.682 52.2466 177.709 52.2194 177.764C52.1921 177.818 52.1648 177.846 52.1375 177.9C52.1375 177.9 52.1375 177.927 52.1103 177.927C52.083 177.955 52.083 177.982 52.083 178.009C52.0558 178.064 52.0557 178.091 52.0285 178.146C52.0285 178.2 52.0012 178.227 52.0012 178.282C52.0012 178.336 51.9739 178.364 51.9739 178.418C51.9739 178.473 51.9739 178.5 51.9739 178.555C51.9739 178.609 51.9739 178.636 51.9739 178.691C51.9739 178.745 52.0012 178.773 52.0012 178.827C52.0012 178.882 52.0285 178.909 52.0285 178.964C52.0557 179.018 52.0558 179.073 52.083 179.1C52.083 179.127 52.1103 179.155 52.1103 179.182C52.1103 179.182 52.1103 179.209 52.1375 179.209C52.1648 179.264 52.1921 179.291 52.2194 179.345C52.2466 179.373 52.2739 179.427 52.3011 179.454C52.3284 179.482 52.3557 179.509 52.4102 179.564C52.4375 179.591 52.4648 179.645 52.5193 179.673C52.5466 179.7 52.5739 179.727 52.6284 179.754C52.6829 179.782 52.7102 179.809 52.7647 179.836C52.7647 179.836 52.792 179.836 52.792 179.863C52.8193 179.891 52.8465 179.891 52.8738 179.891C52.9284 179.918 52.9556 179.918 53.0102 179.945C53.0647 179.945 53.092 179.973 53.1465 179.973C53.201 179.973 53.2283 180 53.2828 180C53.3374 180 53.3646 180 53.4192 180C53.4737 180 53.501 180 53.5555 180C53.6101 180 53.6373 179.973 53.6919 179.973C53.7464 179.973 53.7737 179.945 53.8282 179.945C53.8828 179.918 53.9373 179.918 53.9646 179.891C53.9918 179.891 54.0191 179.863 54.0463 179.863C54.0463 179.863 54.0736 179.864 54.0736 179.836C54.1281 179.809 54.1554 179.782 54.2099 179.754C54.2372 179.727 54.2918 179.7 54.319 179.673C54.3463 179.645 54.3736 179.618 54.4281 179.564C54.4554 179.536 54.5099 179.509 54.5372 179.454C54.5645 179.427 54.5917 179.4 54.619 179.345C54.6462 179.291 54.6735 179.264 54.7008 179.209C54.7008 179.209 54.7008 179.182 54.7281 179.182C54.7553 179.155 54.7553 179.127 54.7553 179.1C54.7826 179.045 54.7826 179.018 54.8099 178.964C54.8099 178.909 54.8371 178.882 54.8371 178.827C54.8371 178.773 54.8644 178.745 54.8644 178.691C54.8644 178.636 54.8644 178.609 54.8644 178.555C54.8644 178.5 54.8644 178.473 54.8644 178.418C54.8644 178.364 54.8371 178.336 54.8371 178.282Z" fill="#5E17FE"/>
<path d="M44.4206 178.282C44.4206 178.227 44.3933 178.2 44.3933 178.146C44.366 178.091 44.366 178.037 44.3388 178.009C44.3388 177.982 44.3115 177.955 44.3115 177.927C44.3115 177.927 44.3115 177.9 44.2842 177.9C44.257 177.846 44.2297 177.818 44.2024 177.764C44.1751 177.737 44.1479 177.682 44.1206 177.655C44.0933 177.627 44.0661 177.6 44.0115 177.546C43.957 177.491 43.957 177.464 43.9025 177.437C43.8752 177.409 43.8479 177.382 43.7934 177.355C43.7388 177.328 43.7116 177.3 43.657 177.273C43.657 177.273 43.6298 177.273 43.6298 177.246C43.6025 177.218 43.5752 177.218 43.548 177.218C43.4934 177.191 43.4662 177.191 43.4116 177.164C43.3571 177.164 43.3298 177.137 43.2753 177.137C43.2207 177.137 43.1935 177.109 43.1389 177.109C43.0844 177.109 43.0571 177.109 43.0026 177.109C42.9481 177.109 42.9208 177.109 42.8662 177.109C42.8117 177.109 42.7844 177.137 42.7299 177.137C42.6754 177.137 42.6481 177.164 42.5936 177.164C42.539 177.191 42.4845 177.191 42.4572 177.218C42.4299 177.218 42.4027 177.246 42.3754 177.246C42.3754 177.246 42.3481 177.246 42.3481 177.273C42.2936 177.3 42.2663 177.328 42.2118 177.355C42.1845 177.382 42.13 177.409 42.1027 177.437C42.0755 177.464 42.0482 177.491 41.9937 177.546C41.9664 177.573 41.9119 177.6 41.8846 177.655C41.8573 177.682 41.83 177.709 41.8028 177.764C41.7755 177.818 41.7482 177.846 41.721 177.9C41.721 177.9 41.721 177.927 41.6937 177.927C41.6664 177.955 41.6664 177.982 41.6664 178.009C41.6392 178.064 41.6392 178.091 41.6119 178.146C41.6119 178.2 41.5846 178.227 41.5846 178.282C41.5846 178.336 41.5574 178.364 41.5574 178.418C41.5574 178.473 41.5574 178.5 41.5574 178.555C41.5574 178.609 41.5574 178.636 41.5574 178.691C41.5574 178.745 41.5846 178.773 41.5846 178.827C41.5846 178.882 41.6119 178.909 41.6119 178.964C41.6392 179.018 41.6392 179.073 41.6664 179.1C41.6664 179.127 41.6937 179.155 41.6937 179.182C41.6937 179.182 41.6937 179.209 41.721 179.209C41.7482 179.264 41.7755 179.291 41.8028 179.345C41.83 179.373 41.8573 179.427 41.8846 179.454C41.9119 179.482 41.9391 179.509 41.9937 179.564C42.0209 179.591 42.0482 179.645 42.1027 179.673C42.13 179.7 42.1573 179.727 42.2118 179.754C42.2663 179.782 42.2936 179.809 42.3481 179.836C42.3481 179.836 42.3754 179.836 42.3754 179.863C42.4027 179.891 42.4299 179.891 42.4572 179.891C42.5118 179.918 42.539 179.918 42.5936 179.945C42.6481 179.945 42.6754 179.973 42.7299 179.973C42.7844 179.973 42.8117 180 42.8662 180C42.9208 180 42.9481 180 43.0026 180C43.0571 180 43.0844 180 43.1389 180C43.1935 180 43.2207 179.973 43.2753 179.973C43.3298 179.973 43.3571 179.945 43.4116 179.945C43.4662 179.918 43.5207 179.918 43.548 179.891C43.5752 179.891 43.6025 179.863 43.6298 179.863C43.6298 179.863 43.657 179.864 43.657 179.836C43.7116 179.809 43.7388 179.782 43.7934 179.754C43.8207 179.727 43.8752 179.7 43.9025 179.673C43.9297 179.645 43.957 179.618 44.0115 179.564C44.0388 179.536 44.0933 179.509 44.1206 179.454C44.1479 179.427 44.1751 179.4 44.2024 179.345C44.2297 179.291 44.257 179.264 44.2842 179.209C44.2842 179.209 44.2842 179.182 44.3115 179.182C44.3388 179.155 44.3388 179.127 44.3388 179.1C44.366 179.045 44.366 179.018 44.3933 178.964C44.3933 178.909 44.4206 178.882 44.4206 178.827C44.4206 178.773 44.4478 178.745 44.4478 178.691C44.4478 178.636 44.4478 178.609 44.4478 178.555C44.4478 178.5 44.4478 178.473 44.4478 178.418C44.4478 178.364 44.4478 178.336 44.4206 178.282Z" fill="#5E17FE"/>
<path d="M34.0312 178.282C34.0312 178.227 34.004 178.2 34.004 178.146C33.9767 178.091 33.9767 178.037 33.9494 178.009C33.9494 177.982 33.9222 177.955 33.9222 177.927C33.9222 177.927 33.9222 177.9 33.8949 177.9C33.8676 177.846 33.8404 177.818 33.8131 177.764C33.7858 177.737 33.7586 177.682 33.7313 177.655C33.704 177.627 33.6767 177.6 33.6222 177.546C33.5949 177.518 33.5677 177.464 33.5132 177.437C33.4859 177.409 33.4586 177.382 33.4041 177.355C33.3495 177.328 33.3223 177.3 33.2677 177.273C33.2677 177.273 33.2405 177.273 33.2405 177.246C33.2132 177.218 33.1859 177.218 33.1587 177.218C33.1041 177.191 33.0768 177.191 33.0223 177.164C32.9678 177.164 32.9405 177.137 32.886 177.137C32.8314 177.137 32.8042 177.109 32.7496 177.109C32.6951 177.109 32.6678 177.109 32.6133 177.109C32.5587 177.109 32.5315 177.109 32.4769 177.109C32.4224 177.109 32.3951 177.137 32.3406 177.137C32.2861 177.137 32.2588 177.164 32.2042 177.164C32.1497 177.191 32.0952 177.191 32.0679 177.218C32.0406 177.218 32.0134 177.246 31.9861 177.246C31.9861 177.246 31.9588 177.246 31.9588 177.273C31.9043 177.3 31.877 177.328 31.8225 177.355C31.7952 177.382 31.7407 177.409 31.7134 177.437C31.6861 177.464 31.6589 177.491 31.6044 177.546C31.5771 177.573 31.5225 177.6 31.4953 177.655C31.468 177.682 31.4407 177.709 31.4135 177.764C31.3862 177.818 31.3589 177.846 31.3317 177.9C31.3317 177.9 31.3316 177.927 31.3044 177.927C31.2771 177.955 31.2771 177.982 31.2771 178.009C31.2498 178.064 31.2499 178.091 31.2226 178.146C31.2226 178.2 31.1953 178.227 31.1953 178.282C31.1953 178.336 31.168 178.364 31.168 178.418C31.168 178.473 31.168 178.5 31.168 178.555C31.168 178.609 31.168 178.636 31.168 178.691C31.168 178.745 31.1953 178.773 31.1953 178.827C31.1953 178.882 31.2226 178.909 31.2226 178.964C31.2499 179.018 31.2498 179.073 31.2771 179.1C31.2771 179.127 31.3044 179.155 31.3044 179.182C31.3044 179.182 31.3044 179.209 31.3317 179.209C31.3589 179.264 31.3862 179.291 31.4135 179.345C31.4407 179.373 31.468 179.427 31.4953 179.454C31.5225 179.482 31.5498 179.509 31.6044 179.564C31.6316 179.591 31.6589 179.645 31.7134 179.673C31.7407 179.7 31.7679 179.727 31.8225 179.754C31.877 179.782 31.9043 179.809 31.9588 179.836C31.9588 179.836 31.9861 179.836 31.9861 179.863C32.0134 179.891 32.0406 179.891 32.0679 179.891C32.1224 179.918 32.1497 179.918 32.2042 179.945C32.2588 179.945 32.2861 179.973 32.3406 179.973C32.3951 179.973 32.4224 180 32.4769 180C32.5315 180 32.5587 180 32.6133 180C32.6678 180 32.6951 180 32.7496 180C32.8042 180 32.8314 179.973 32.886 179.973C32.9405 179.973 32.9678 179.945 33.0223 179.945C33.0768 179.918 33.1314 179.918 33.1587 179.891C33.1859 179.891 33.2132 179.863 33.2405 179.863C33.2405 179.863 33.2677 179.864 33.2677 179.836C33.3223 179.809 33.3495 179.782 33.4041 179.754C33.4313 179.727 33.4859 179.7 33.5132 179.673C33.5404 179.645 33.5677 179.618 33.6222 179.564C33.6495 179.536 33.704 179.509 33.7313 179.454C33.7586 179.427 33.7858 179.4 33.8131 179.345C33.8404 179.291 33.8676 179.264 33.8949 179.209C33.8949 179.209 33.8949 179.182 33.9222 179.182C33.9495 179.155 33.9494 179.127 33.9494 179.1C33.9767 179.045 33.9767 179.018 34.004 178.964C34.004 178.909 34.0312 178.882 34.0312 178.827C34.0312 178.773 34.0585 178.745 34.0585 178.691C34.0585 178.636 34.0585 178.609 34.0585 178.555C34.0585 178.5 34.0585 178.473 34.0585 178.418C34.0585 178.364 34.0585 178.336 34.0312 178.282Z" fill="#5E17FE"/>
<path d="M23.6418 178.282C23.6418 178.227 23.6146 178.2 23.6146 178.146C23.5873 178.091 23.5873 178.037 23.56 178.009C23.56 177.982 23.5327 177.955 23.5327 177.927C23.5327 177.927 23.5328 177.9 23.5055 177.9C23.4782 177.846 23.451 177.818 23.4237 177.764C23.3964 177.737 23.3691 177.682 23.3419 177.655C23.3146 177.627 23.2873 177.6 23.2328 177.546C23.2055 177.518 23.1783 177.464 23.1237 177.437C23.0964 177.409 23.0692 177.382 23.0147 177.355C22.9601 177.328 22.9329 177.3 22.8783 177.273C22.8783 177.273 22.851 177.273 22.851 177.246C22.8238 177.218 22.7965 177.218 22.7692 177.218C22.7147 177.191 22.6874 177.191 22.6329 177.164C22.5784 177.164 22.5511 177.137 22.4966 177.137C22.442 177.137 22.4148 177.109 22.3602 177.109C22.3057 177.109 22.2784 177.109 22.2239 177.109C22.1693 177.109 22.1421 177.109 22.0875 177.109C22.033 177.109 22.0057 177.137 21.9512 177.137C21.8967 177.137 21.8694 177.164 21.8148 177.164C21.7603 177.191 21.7058 177.191 21.6785 177.218C21.6512 177.218 21.624 177.246 21.5967 177.246C21.5967 177.246 21.5694 177.246 21.5694 177.273C21.5149 177.3 21.4876 177.328 21.4331 177.355C21.4058 177.382 21.3513 177.409 21.324 177.437C21.2967 177.464 21.2695 177.491 21.2149 177.546C21.1877 177.573 21.1331 177.6 21.1059 177.655C21.0786 177.682 21.0513 177.709 21.024 177.764C20.9968 177.818 20.9695 177.846 20.9422 177.9C20.9422 177.9 20.9422 177.927 20.915 177.927C20.8877 177.955 20.8877 177.982 20.8877 178.009C20.8604 178.064 20.8604 178.091 20.8332 178.146C20.8332 178.2 20.8059 178.227 20.8059 178.282C20.8059 178.336 20.7786 178.364 20.7786 178.418C20.7786 178.473 20.7786 178.5 20.7786 178.555C20.7786 178.609 20.7786 178.636 20.7786 178.691C20.7786 178.745 20.8059 178.773 20.8059 178.827C20.8059 178.882 20.8332 178.909 20.8332 178.964C20.8604 179.018 20.8604 179.073 20.8877 179.1C20.8877 179.127 20.915 179.155 20.915 179.182C20.915 179.182 20.915 179.209 20.9422 179.209C20.9695 179.264 20.9968 179.291 21.024 179.345C21.0513 179.373 21.0786 179.427 21.1059 179.454C21.1331 179.482 21.1604 179.509 21.2149 179.564C21.2422 179.591 21.2695 179.645 21.324 179.673C21.3513 179.7 21.3785 179.727 21.4331 179.754C21.4876 179.782 21.5149 179.809 21.5694 179.836C21.5694 179.836 21.5967 179.836 21.5967 179.863C21.624 179.891 21.6512 179.891 21.6785 179.891C21.733 179.918 21.7603 179.918 21.8148 179.945C21.8694 179.945 21.8967 179.973 21.9512 179.973C22.0057 179.973 22.033 180 22.0875 180C22.1421 180 22.1693 180 22.2239 180C22.2784 180 22.3057 180 22.3602 180C22.4148 180 22.442 179.973 22.4966 179.973C22.5511 179.973 22.5784 179.945 22.6329 179.945C22.6874 179.918 22.742 179.918 22.7692 179.891C22.7965 179.891 22.8238 179.863 22.851 179.863C22.851 179.863 22.8783 179.864 22.8783 179.836C22.9329 179.809 22.9601 179.782 23.0147 179.754C23.0419 179.727 23.0964 179.7 23.1237 179.673C23.151 179.645 23.1783 179.618 23.2328 179.564C23.2601 179.536 23.3146 179.509 23.3419 179.454C23.3691 179.427 23.3964 179.4 23.4237 179.345C23.451 179.291 23.4782 179.264 23.5055 179.209C23.5055 179.209 23.5055 179.182 23.5327 179.182C23.56 179.155 23.56 179.127 23.56 179.1C23.5873 179.045 23.5873 179.018 23.6146 178.964C23.6146 178.909 23.6418 178.882 23.6418 178.827C23.6418 178.773 23.6691 178.745 23.6691 178.691C23.6691 178.636 23.6691 178.609 23.6691 178.555C23.6691 178.5 23.6691 178.473 23.6691 178.418C23.6691 178.364 23.6418 178.336 23.6418 178.282Z" fill="#5E17FE"/>
<path d="M13.2525 178.282C13.2525 178.227 13.2253 178.2 13.2253 178.146C13.198 178.091 13.198 178.037 13.1707 178.009C13.1707 177.982 13.1435 177.955 13.1435 177.927C13.1435 177.927 13.1435 177.9 13.1162 177.9C13.0889 177.846 13.0617 177.818 13.0344 177.764C13.0071 177.737 12.9799 177.682 12.9526 177.655C12.9253 177.627 12.8981 177.6 12.8435 177.546C12.789 177.491 12.789 177.464 12.7344 177.437C12.7072 177.409 12.6799 177.382 12.6254 177.355C12.5708 177.328 12.5436 177.3 12.489 177.273C12.489 177.273 12.4618 177.273 12.4618 177.246C12.4345 177.218 12.4072 177.218 12.3799 177.218C12.3254 177.191 12.2981 177.191 12.2436 177.164C12.1891 177.164 12.1618 177.137 12.1073 177.137C12.0527 177.137 12.0255 177.109 11.9709 177.109C11.9164 177.109 11.8891 177.109 11.8346 177.109C11.78 177.109 11.7528 177.109 11.6982 177.109C11.6437 177.109 11.6164 177.137 11.5619 177.137C11.5074 177.137 11.4801 177.164 11.4255 177.164C11.371 177.191 11.3165 177.191 11.2892 177.218C11.2619 177.218 11.2347 177.246 11.2074 177.246C11.2074 177.246 11.1801 177.246 11.1801 177.273C11.1256 177.3 11.0983 177.328 11.0438 177.355C11.0165 177.382 10.962 177.409 10.9347 177.437C10.9074 177.464 10.8802 177.491 10.8256 177.546C10.7984 177.573 10.7438 177.6 10.7166 177.655C10.6893 177.682 10.662 177.709 10.6348 177.764C10.6075 177.818 10.5802 177.846 10.5529 177.9C10.5529 177.9 10.553 177.927 10.5257 177.927C10.4984 177.955 10.4984 177.982 10.4984 178.009C10.4712 178.064 10.4712 178.091 10.4439 178.146C10.4439 178.2 10.4166 178.227 10.4166 178.282C10.4166 178.336 10.3893 178.364 10.3893 178.418C10.3893 178.473 10.3893 178.5 10.3893 178.555C10.3893 178.609 10.3893 178.636 10.3893 178.691C10.3893 178.745 10.4166 178.773 10.4166 178.827C10.4166 178.882 10.4439 178.909 10.4439 178.964C10.4712 179.018 10.4712 179.073 10.4984 179.1C10.4984 179.127 10.5257 179.155 10.5257 179.182C10.5257 179.182 10.5257 179.209 10.5529 179.209C10.5802 179.264 10.6075 179.291 10.6348 179.345C10.662 179.373 10.6893 179.427 10.7166 179.454C10.7438 179.482 10.7711 179.509 10.8256 179.564C10.8529 179.591 10.8802 179.645 10.9347 179.673C10.962 179.7 10.9893 179.727 11.0438 179.754C11.0983 179.782 11.1256 179.809 11.1801 179.836C11.1801 179.836 11.2074 179.836 11.2074 179.863C11.2347 179.891 11.2619 179.891 11.2892 179.891C11.3437 179.918 11.371 179.918 11.4255 179.945C11.4801 179.945 11.5074 179.973 11.5619 179.973C11.6164 179.973 11.6437 180 11.6982 180C11.7528 180 11.78 180 11.8346 180C11.8891 180 11.9164 180 11.9709 180C12.0255 180 12.0527 179.973 12.1073 179.973C12.1618 179.973 12.1891 179.945 12.2436 179.945C12.2981 179.918 12.3527 179.918 12.3799 179.891C12.4072 179.891 12.4345 179.863 12.4618 179.863C12.4618 179.863 12.489 179.864 12.489 179.836C12.5436 179.809 12.5708 179.782 12.6254 179.754C12.6526 179.727 12.7072 179.7 12.7344 179.673C12.7617 179.645 12.789 179.618 12.8435 179.564C12.8708 179.536 12.9253 179.509 12.9526 179.454C12.9799 179.427 13.0071 179.4 13.0344 179.345C13.0617 179.291 13.0889 179.264 13.1162 179.209C13.1162 179.209 13.1162 179.182 13.1435 179.182C13.1707 179.155 13.1707 179.127 13.1707 179.1C13.198 179.045 13.198 179.018 13.2253 178.964C13.2253 178.909 13.2525 178.882 13.2525 178.827C13.2525 178.773 13.2798 178.745 13.2798 178.691C13.2798 178.636 13.2798 178.609 13.2798 178.555C13.2798 178.5 13.2798 178.473 13.2798 178.418C13.2798 178.364 13.2525 178.336 13.2525 178.282Z" fill="#5E17FE"/>
<path d="M2.8632 178.282C2.8632 178.227 2.83592 178.2 2.83592 178.146C2.80866 178.091 2.80865 178.037 2.78138 178.009C2.78138 177.982 2.75412 177.955 2.75412 177.927C2.75412 177.927 2.75413 177.9 2.72686 177.9C2.69959 177.846 2.67231 177.818 2.64504 177.764C2.61777 177.737 2.59051 177.682 2.56324 177.655C2.53597 177.627 2.50871 177.6 2.45417 177.546C2.42691 177.518 2.39963 177.464 2.34509 177.437C2.31782 177.409 2.29055 177.382 2.23601 177.355C2.18147 177.328 2.15421 177.3 2.09967 177.273C2.09967 177.273 2.07241 177.273 2.07241 177.246C2.04514 177.218 2.01787 177.218 1.9906 177.218C1.93607 177.191 1.9088 177.191 1.85426 177.164C1.79972 177.164 1.77246 177.137 1.71792 177.137C1.66338 177.137 1.63611 177.109 1.58158 177.109C1.52704 177.109 1.49977 177.109 1.44523 177.109C1.3907 177.109 1.36343 177.109 1.30889 177.109C1.25435 177.109 1.22708 177.137 1.17255 177.137C1.11801 177.137 1.09074 177.164 1.0362 177.164C0.981666 177.191 0.927129 177.191 0.89986 177.218C0.872592 177.218 0.845327 177.246 0.818058 177.246C0.818058 177.246 0.790779 177.246 0.790779 177.273C0.736242 177.3 0.708974 177.328 0.654436 177.355C0.627168 177.382 0.572641 177.409 0.545372 177.437C0.518103 177.464 0.490828 177.491 0.436291 177.546C0.409022 177.573 0.381747 177.6 0.32721 177.655C0.299941 177.682 0.272676 177.709 0.245407 177.764C0.218139 177.818 0.190874 177.846 0.163605 177.9C0.163605 177.9 0.163612 177.927 0.136343 177.927C0.109074 177.955 0.109064 177.982 0.109064 178.009C0.0817958 178.064 0.0817925 178.091 0.0545239 178.146C0.0545239 178.2 0.0272619 178.227 0.0272619 178.282C0.0272619 178.336 0 178.364 0 178.418C0 178.473 0 178.5 0 178.555C0 178.609 0 178.636 0 178.691C0 178.745 0.0272619 178.773 0.0272619 178.827C0.0272619 178.882 0.0545239 178.909 0.0545239 178.964C0.0817925 179.018 0.0817958 179.073 0.109064 179.1C0.109064 179.127 0.136343 179.155 0.136343 179.182C0.136343 179.182 0.136336 179.209 0.163605 179.209C0.190874 179.264 0.218139 179.291 0.245407 179.345C0.272676 179.373 0.299941 179.427 0.32721 179.454C0.354478 179.482 0.381754 179.509 0.436291 179.564C0.46356 179.591 0.490835 179.645 0.545372 179.673C0.572641 179.7 0.599899 179.727 0.654436 179.754C0.708974 179.782 0.736242 179.809 0.790779 179.836C0.790779 179.836 0.818058 179.836 0.818058 179.863C0.845327 179.891 0.872592 179.891 0.89986 179.891C0.954398 179.918 0.981666 179.918 1.0362 179.945C1.09074 179.945 1.11801 179.973 1.17255 179.973C1.22708 179.973 1.25435 180 1.30889 180C1.36343 180 1.3907 180 1.44523 180C1.49977 180 1.52704 180 1.58158 180C1.63611 180 1.66338 179.973 1.71792 179.973C1.77246 179.973 1.79972 179.945 1.85426 179.945C1.9088 179.918 1.96334 179.918 1.9906 179.891C2.01787 179.891 2.04514 179.863 2.07241 179.863C2.07241 179.863 2.09967 179.864 2.09967 179.836C2.15421 179.809 2.18147 179.782 2.23601 179.754C2.26328 179.727 2.31782 179.7 2.34509 179.673C2.37236 179.645 2.39964 179.618 2.45417 179.564C2.48144 179.536 2.53597 179.509 2.56324 179.454C2.59051 179.427 2.61777 179.4 2.64504 179.345C2.67231 179.291 2.69959 179.264 2.72686 179.209C2.72686 179.209 2.72685 179.182 2.75412 179.182C2.78139 179.155 2.78138 179.127 2.78138 179.1C2.80865 179.045 2.80866 179.018 2.83592 178.964C2.83592 178.909 2.8632 178.882 2.8632 178.827C2.8632 178.773 2.89046 178.745 2.89046 178.691C2.89046 178.636 2.89046 178.609 2.89046 178.555C2.89046 178.5 2.89046 178.473 2.89046 178.418C2.89046 178.364 2.8632 178.336 2.8632 178.282Z" fill="#5E17FE"/>
<path d="M4.00841 172.583C4.79153 172.583 5.42638 171.948 5.42638 171.165C5.42638 170.382 4.79153 169.747 4.00841 169.747C3.22529 169.747 2.59045 170.382 2.59045 171.165C2.59045 171.948 3.22529 172.583 4.00841 172.583Z" fill="#5E17FE"/>
<path d="M9.29859 163.639C10.0817 163.639 10.7166 163.004 10.7166 162.221C10.7166 161.438 10.0817 160.803 9.29859 160.803C8.51546 160.803 7.88062 161.438 7.88062 162.221C7.88062 163.004 8.51546 163.639 9.29859 163.639Z" fill="#5E17FE"/>
<path d="M14.5887 154.695C15.3718 154.695 16.0066 154.06 16.0066 153.277C16.0066 152.494 15.3718 151.859 14.5887 151.859C13.8056 151.859 13.1707 152.494 13.1707 153.277C13.1707 154.06 13.8056 154.695 14.5887 154.695Z" fill="#5E17FE"/>
<path d="M19.8788 145.751C20.6619 145.751 21.2968 145.116 21.2968 144.333C21.2968 143.55 20.6619 142.915 19.8788 142.915C19.0957 142.915 18.4608 143.55 18.4608 144.333C18.4608 145.116 19.0957 145.751 19.8788 145.751Z" fill="#5E17FE"/>
<path d="M25.1689 136.807C25.952 136.807 26.5869 136.172 26.5869 135.389C26.5869 134.606 25.952 133.971 25.1689 133.971C24.3857 133.971 23.7509 134.606 23.7509 135.389C23.7509 136.172 24.3857 136.807 25.1689 136.807Z" fill="#5E17FE"/>
<path d="M30.459 127.862C31.2422 127.862 31.877 127.227 31.877 126.444C31.877 125.661 31.2422 125.026 30.459 125.026C29.6759 125.026 29.0411 125.661 29.0411 126.444C29.0411 127.227 29.6759 127.862 30.459 127.862Z" fill="#5E17FE"/>
<path d="M35.7491 118.918C36.5323 118.918 37.1671 118.283 37.1671 117.5C37.1671 116.717 36.5323 116.082 35.7491 116.082C34.966 116.082 34.3312 116.717 34.3312 117.5C34.3312 118.283 34.966 118.918 35.7491 118.918Z" fill="#5E17FE"/>
<path d="M41.0393 109.947C41.8224 109.947 42.4572 109.312 42.4572 108.529C42.4572 107.746 41.8224 107.111 41.0393 107.111C40.2561 107.111 39.6213 107.746 39.6213 108.529C39.6213 109.312 40.2561 109.947 41.0393 109.947Z" fill="#5E17FE"/>
<path d="M46.3294 101.003C47.1125 101.003 47.7474 100.368 47.7474 99.5847C47.7474 98.8016 47.1125 98.1667 46.3294 98.1667C45.5463 98.1667 44.9114 98.8016 44.9114 99.5847C44.9114 100.368 45.5463 101.003 46.3294 101.003Z" fill="#5E17FE"/>
<path d="M51.6195 92.0586C52.4026 92.0586 53.0375 91.4237 53.0375 90.6406C53.0375 89.8575 52.4026 89.2227 51.6195 89.2227C50.8364 89.2227 50.2015 89.8575 50.2015 90.6406C50.2015 91.4237 50.8364 92.0586 51.6195 92.0586Z" fill="#5E17FE"/>
<path d="M56.9096 83.1147C57.6927 83.1147 58.3276 82.4799 58.3276 81.6968C58.3276 80.9136 57.6927 80.2788 56.9096 80.2788C56.1265 80.2788 55.4916 80.9136 55.4916 81.6968C55.4916 82.4799 56.1265 83.1147 56.9096 83.1147Z" fill="#5E17FE"/>
<path d="M62.1724 74.1705C62.9555 74.1705 63.5903 73.5357 63.5903 72.7526C63.5903 71.9694 62.9555 71.3346 62.1724 71.3346C61.3893 71.3346 60.7544 71.9694 60.7544 72.7526C60.7544 73.5357 61.3893 74.1705 62.1724 74.1705Z" fill="#5E17FE"/>
<path d="M67.4625 65.2264C68.2456 65.2264 68.8804 64.5916 68.8804 63.8085C68.8804 63.0254 68.2456 62.3905 67.4625 62.3905C66.6794 62.3905 66.0445 63.0254 66.0445 63.8085C66.0445 64.5916 66.6794 65.2264 67.4625 65.2264Z" fill="#5E17FE"/>
<path d="M72.7525 56.2825C73.5357 56.2825 74.1705 55.6476 74.1705 54.8645C74.1705 54.0814 73.5357 53.4465 72.7525 53.4465C71.9694 53.4465 71.3346 54.0814 71.3346 54.8645C71.3346 55.6476 71.9694 56.2825 72.7525 56.2825Z" fill="#5E17FE"/>
<path d="M78.0427 47.311C78.8258 47.311 79.4607 46.6762 79.4607 45.8931C79.4607 45.1099 78.8258 44.4751 78.0427 44.4751C77.2596 44.4751 76.6248 45.1099 76.6248 45.8931C76.6248 46.6762 77.2596 47.311 78.0427 47.311Z" fill="#5E17FE"/>
<path d="M83.3328 38.3669C84.1159 38.3669 84.7508 37.7321 84.7508 36.949C84.7508 36.1659 84.1159 35.531 83.3328 35.531C82.5497 35.531 81.9149 36.1659 81.9149 36.949C81.9149 37.7321 82.5497 38.3669 83.3328 38.3669Z" fill="#5E17FE"/>
<path d="M88.6229 29.4226C89.4061 29.4226 90.0409 28.7878 90.0409 28.0046C90.0409 27.2215 89.4061 26.5867 88.6229 26.5867C87.8398 26.5867 87.205 27.2215 87.205 28.0046C87.205 28.7878 87.8398 29.4226 88.6229 29.4226Z" fill="#5E17FE"/>
<path d="M93.9131 20.4788C94.6962 20.4788 95.3311 19.8439 95.3311 19.0608C95.3311 18.2777 94.6962 17.6428 93.9131 17.6428C93.13 17.6428 92.4951 18.2777 92.4951 19.0608C92.4951 19.8439 93.13 20.4788 93.9131 20.4788Z" fill="#5E17FE"/>
<path d="M99.5031 11.5345C100.286 11.5345 100.921 10.8997 100.921 10.1166C100.921 9.33345 100.286 8.69861 99.5031 8.69861C98.72 8.69861 98.0851 9.33345 98.0851 10.1166C98.0851 10.8997 98.72 11.5345 99.5031 11.5345Z" fill="#5E17FE"/>
<path d="M104.003 1.71792C104.003 1.77246 104.03 1.79973 104.03 1.85427C104.057 1.9088 104.057 1.96334 104.084 1.99061C104.084 2.01788 104.112 2.04515 104.112 2.07242C104.112 2.07242 104.112 2.09968 104.139 2.09968C104.166 2.15422 104.193 2.18149 104.221 2.23602C104.248 2.26329 104.275 2.31783 104.302 2.3451C104.33 2.37237 104.357 2.39964 104.412 2.45417C104.439 2.48144 104.466 2.53598 104.521 2.56325C104.548 2.59052 104.575 2.61778 104.63 2.64505C104.684 2.67232 104.711 2.69959 104.766 2.72686C104.766 2.72686 104.793 2.72686 104.793 2.75413C104.821 2.7814 104.848 2.7814 104.875 2.7814C104.93 2.80866 104.957 2.80867 105.011 2.83594C105.066 2.83594 105.093 2.8632 105.148 2.8632C105.202 2.8632 105.23 2.89047 105.284 2.89047C105.339 2.89047 105.366 2.89047 105.42 2.89047C105.475 2.89047 105.502 2.89047 105.557 2.89047C105.611 2.89047 105.639 2.8632 105.693 2.8632C105.748 2.8632 105.775 2.83594 105.829 2.83594C105.884 2.80867 105.939 2.80866 105.966 2.7814C105.993 2.7814 106.02 2.75413 106.048 2.75413C106.048 2.75413 106.075 2.75413 106.075 2.72686C106.129 2.69959 106.157 2.67232 106.211 2.64505C106.239 2.61778 106.293 2.59052 106.32 2.56325C106.348 2.53598 106.375 2.50871 106.429 2.45417C106.457 2.42691 106.511 2.39964 106.538 2.3451C106.566 2.31783 106.593 2.29056 106.62 2.23602C106.648 2.18149 106.675 2.15422 106.702 2.09968C106.702 2.09968 106.702 2.07242 106.729 2.07242C106.757 2.04515 106.757 2.01788 106.757 1.99061C106.784 1.93607 106.784 1.9088 106.811 1.85427C106.811 1.79973 106.838 1.77246 106.838 1.71792C106.838 1.66339 106.866 1.63612 106.866 1.58158C106.866 1.52704 106.866 1.49977 106.866 1.44524C106.866 1.3907 106.866 1.36343 106.866 1.30889C106.866 1.25436 106.838 1.22709 106.838 1.17255C106.838 1.11801 106.811 1.09074 106.811 1.03621C106.784 0.98167 106.784 0.927133 106.757 0.899865C106.757 0.872596 106.729 0.845327 106.729 0.818058C106.729 0.818058 106.729 0.790792 106.702 0.790792C106.675 0.736255 106.648 0.708986 106.62 0.654449C106.593 0.62718 106.566 0.572641 106.538 0.545372C106.511 0.518103 106.484 0.490836 106.429 0.436299C106.402 0.409031 106.375 0.354491 106.32 0.327222C106.293 0.299954 106.266 0.272688 106.211 0.24542C106.157 0.218151 106.129 0.190882 106.075 0.163613C106.075 0.163613 106.048 0.163612 106.048 0.136343C106.02 0.109074 105.993 0.109077 105.966 0.109077C105.911 0.0818083 105.884 0.081805 105.829 0.0545364C105.775 0.0545364 105.748 0.0272703 105.693 0.0272703C105.639 0.0272703 105.611 0 105.557 0C105.502 0 105.475 0 105.42 0C105.366 0 105.339 0 105.284 0C105.23 0 105.202 0.0272703 105.148 0.0272703C105.093 0.0272703 105.066 0.0545364 105.011 0.0545364C104.957 0.081805 104.902 0.0818083 104.875 0.109077C104.848 0.109077 104.821 0.136343 104.793 0.136343C104.793 0.136343 104.766 0.136345 104.766 0.163613C104.711 0.190882 104.684 0.218151 104.63 0.24542C104.602 0.272688 104.548 0.299954 104.521 0.327222C104.493 0.354491 104.466 0.381762 104.412 0.436299C104.357 0.490836 104.33 0.490835 104.302 0.545372C104.275 0.572641 104.248 0.599912 104.221 0.654449C104.193 0.708986 104.166 0.736255 104.139 0.790792C104.139 0.790792 104.139 0.818058 104.112 0.818058C104.084 0.845327 104.084 0.872596 104.084 0.899865C104.057 0.954402 104.057 0.98167 104.03 1.03621C104.03 1.09074 104.003 1.11801 104.003 1.17255C104.003 1.22709 103.975 1.25436 103.975 1.30889C103.975 1.36343 103.975 1.3907 103.975 1.44524C103.975 1.49977 103.975 1.52704 103.975 1.58158C103.975 1.63612 104.003 1.69065 104.003 1.71792Z" fill="#5E17FE"/>
<path d="M13.0616 172.747H197.725C198.188 172.747 198.652 172.501 198.87 172.065C199.115 171.656 199.115 171.138 198.87 170.729L106.538 14.507C106.293 14.098 105.857 13.8525 105.393 13.8525C104.93 13.8525 104.493 14.098 104.248 14.507L11.9164 170.756C11.6709 171.165 11.6709 171.683 11.9164 172.092C12.1618 172.501 12.5981 172.747 13.0616 172.747ZM105.393 17.8065L195.407 170.102H15.3795L105.393 17.8065Z" fill="#5E17FE"/>
<path d="M106.457 147.632V143.515C107.057 143.46 107.629 143.324 108.202 143.16L109.783 146.978C109.947 147.387 110.356 147.632 110.765 147.632C110.901 147.632 111.038 147.605 111.174 147.55C111.719 147.332 111.965 146.705 111.747 146.16L110.165 142.342C110.683 142.069 111.174 141.715 111.638 141.36L114.555 144.278C114.774 144.496 115.046 144.578 115.292 144.578C115.564 144.578 115.837 144.469 116.028 144.278C116.437 143.869 116.437 143.187 116.028 142.778L113.11 139.861C113.492 139.397 113.819 138.906 114.092 138.388L117.909 139.97C118.046 140.024 118.182 140.051 118.319 140.051C118.728 140.051 119.137 139.806 119.3 139.397C119.518 138.852 119.273 138.224 118.728 138.006L114.91 136.425C115.074 135.852 115.183 135.279 115.264 134.68H119.382C119.955 134.68 120.445 134.216 120.445 133.616C120.445 133.016 119.982 132.553 119.382 132.553H115.264C115.21 131.953 115.074 131.38 114.91 130.807L118.728 129.226C119.273 129.008 119.518 128.38 119.3 127.835C119.082 127.29 118.455 127.044 117.909 127.262L114.092 128.844C113.819 128.326 113.465 127.835 113.11 127.372L116.028 124.454C116.437 124.045 116.437 123.363 116.028 122.954C115.619 122.545 114.937 122.545 114.528 122.954L111.61 125.872C111.147 125.49 110.656 125.163 110.138 124.89L111.719 121.073C111.938 120.527 111.692 119.9 111.147 119.682C110.601 119.464 109.974 119.709 109.756 120.254L108.175 124.072C107.602 123.908 107.029 123.799 106.429 123.718V119.655C106.429 119.082 105.966 118.591 105.366 118.591C104.793 118.591 104.302 119.055 104.302 119.655V123.772C103.703 123.827 103.13 123.963 102.557 124.127L100.976 120.309C100.758 119.764 100.13 119.518 99.585 119.736C99.0396 119.954 98.7942 120.582 99.0123 121.127L100.594 124.945C100.076 125.217 99.585 125.572 99.1214 125.926L96.2036 123.009C95.7946 122.6 95.1129 122.6 94.7039 123.009C94.2948 123.418 94.2948 124.099 94.7039 124.508L97.6216 127.426C97.2399 127.89 96.9127 128.381 96.64 128.899L92.8224 127.317C92.277 127.099 91.6498 127.344 91.4316 127.89C91.2135 128.435 91.4589 129.062 92.0043 129.28L95.8219 130.862C95.6583 131.435 95.5492 132.007 95.4674 132.607H91.3499C90.7772 132.607 90.2864 133.071 90.2864 133.671C90.2864 134.271 90.7499 134.734 91.3499 134.734H95.4674C95.5219 135.334 95.6583 135.907 95.8219 136.479L92.0043 138.061C91.4589 138.279 91.2135 138.906 91.4316 139.452C91.5953 139.861 92.0043 140.106 92.4133 140.106C92.5497 140.106 92.686 140.079 92.8224 140.024L96.64 138.443C96.9127 138.961 97.2671 139.452 97.6216 139.915L94.7039 142.833C94.2948 143.242 94.2948 143.924 94.7039 144.333C94.922 144.551 95.1947 144.633 95.4401 144.633C95.6856 144.633 95.9855 144.524 96.1764 144.333L99.0941 141.415C99.5577 141.797 100.049 142.124 100.567 142.397L98.9851 146.214C98.7669 146.76 99.0123 147.387 99.5577 147.605C99.694 147.659 99.8304 147.687 99.9667 147.687C100.376 147.687 100.785 147.441 100.948 147.032L102.53 143.215C103.103 143.378 103.675 143.487 104.275 143.569V147.687C104.275 148.259 104.739 148.75 105.339 148.75C105.993 148.696 106.457 148.205 106.457 147.632ZM97.5944 133.643C97.5944 129.335 101.085 125.845 105.393 125.845C109.702 125.845 113.192 129.335 113.192 133.643C113.192 137.952 109.702 141.442 105.393 141.442C101.085 141.442 97.5944 137.952 97.5944 133.643Z" fill="#5E17FE"/>
<path d="M183.409 162.03L150.141 133.616L160.448 124.808C160.885 124.427 160.939 123.772 160.557 123.309C160.176 122.872 159.521 122.818 159.058 123.2L148.777 131.98C147.823 130.998 145.942 129.117 143.269 126.881L154.095 113.71C154.477 113.246 154.395 112.592 153.958 112.21C153.495 111.829 152.84 111.91 152.459 112.347L141.633 125.517C140.133 124.318 138.47 123.063 136.643 121.809C136.179 121.482 135.689 121.154 135.17 120.827L146.596 100.703C146.896 100.185 146.705 99.5577 146.187 99.2577C145.669 98.9577 145.042 99.1486 144.742 99.6667L133.371 119.709C131.216 118.4 128.817 117.064 126.226 115.864L137.379 84.8326C137.57 84.2872 137.297 83.6873 136.752 83.4692C136.207 83.2783 135.607 83.551 135.389 84.0964L124.318 115.019C121.945 114.01 119.436 113.11 116.791 112.428L120.064 93.4768C120.173 92.9041 119.764 92.3587 119.191 92.2497C118.618 92.1406 118.073 92.5496 117.964 93.1223L114.719 111.938C112.047 111.365 109.293 110.983 106.457 110.929V95.1947C106.457 94.622 105.993 94.1312 105.393 94.1312C104.82 94.1312 104.33 94.5948 104.33 95.1947V110.929C101.494 111.01 98.7396 111.365 96.0672 111.938L92.8223 93.1223C92.7132 92.5496 92.1679 92.1679 91.5952 92.2497C91.0226 92.3587 90.6408 92.9041 90.7226 93.4768L93.9948 112.428C91.3498 113.11 88.8411 114.01 86.4687 115.019L75.3704 84.1509C75.1795 83.6055 74.5523 83.3056 74.007 83.5237C73.4616 83.7146 73.1616 84.3418 73.3798 84.8871L84.5326 115.919C81.9421 117.119 79.5425 118.455 77.3883 119.764L66.0173 99.7213C65.7173 99.2032 65.0901 99.0396 64.572 99.3122C64.0539 99.6122 63.8903 100.239 64.163 100.757L75.5885 120.882C75.0977 121.209 74.6069 121.536 74.116 121.863C72.2618 123.118 70.5984 124.399 69.1259 125.572L58.3002 112.401C57.9185 111.938 57.264 111.883 56.8005 112.265C56.3369 112.647 56.2824 113.301 56.6641 113.765L67.4898 126.935C64.8175 129.171 62.9359 131.053 61.9815 132.035L51.7012 123.254C51.2649 122.872 50.5832 122.927 50.2015 123.363C49.8197 123.799 49.8743 124.481 50.3106 124.863L60.6181 133.671L27.3504 162.085C26.9141 162.466 26.8596 163.121 27.2413 163.584C27.4595 163.83 27.7594 163.966 28.0594 163.966C28.3048 163.966 28.5502 163.884 28.7411 163.721L61.9815 135.334C62.9359 136.316 64.8175 138.197 67.4898 140.433L49.5743 162.248C49.1925 162.712 49.2743 163.366 49.7106 163.748C49.9015 163.912 50.1469 163.993 50.3923 163.993C50.6923 163.993 50.9923 163.857 51.2104 163.612L69.1259 141.797C70.6257 142.997 72.289 144.251 74.116 145.505C74.5796 145.832 75.0704 146.16 75.5885 146.487L66.5626 162.412C66.2627 162.93 66.4536 163.557 66.9717 163.857C67.1353 163.939 67.3262 163.993 67.4898 163.993C67.8715 163.993 68.226 163.802 68.4169 163.448L77.3883 147.632C78.8608 148.532 80.4423 149.432 82.133 150.305C82.2421 150.359 82.3239 150.414 82.4329 150.468C83.1147 150.823 83.7964 151.15 84.5054 151.477L80.5241 162.575C80.3333 163.121 80.606 163.721 81.1513 163.939C81.2604 163.993 81.3968 163.993 81.5058 163.993C81.9421 163.993 82.3512 163.721 82.5148 163.284L86.4687 152.322C88.8411 153.331 91.3498 154.231 93.9948 154.913L92.6314 162.739C92.5223 163.312 92.9314 163.857 93.504 163.966C93.5586 163.966 93.6131 163.993 93.6949 163.993C94.213 163.993 94.6493 163.639 94.7311 163.121L96.0672 155.431C98.7396 156.004 101.494 156.385 104.33 156.44V162.93C104.33 163.503 104.793 163.993 105.393 163.993C105.966 163.993 106.457 163.53 106.457 162.93V156.44C109.293 156.358 112.047 156.004 114.719 155.431L116.055 163.121C116.137 163.639 116.601 163.993 117.091 163.993C117.146 163.993 117.2 163.993 117.282 163.966C117.855 163.857 118.237 163.312 118.155 162.739L116.791 154.913C119.436 154.231 121.945 153.331 124.318 152.322L128.271 163.284C128.435 163.721 128.844 163.993 129.28 163.993C129.389 163.993 129.526 163.966 129.635 163.939C130.18 163.748 130.48 163.121 130.262 162.575L126.281 151.477C126.99 151.15 127.672 150.823 128.353 150.468C128.462 150.441 128.571 150.386 128.653 150.305C130.344 149.432 131.925 148.532 133.398 147.632L142.369 163.448C142.56 163.802 142.915 163.993 143.296 163.993C143.46 163.993 143.651 163.939 143.815 163.857C144.333 163.557 144.496 162.93 144.224 162.412L135.198 146.487C135.689 146.16 136.179 145.832 136.67 145.505C138.524 144.251 140.188 142.969 141.66 141.797L159.576 163.612C159.794 163.857 160.094 163.993 160.394 163.993C160.639 163.993 160.857 163.912 161.076 163.748C161.539 163.366 161.594 162.712 161.212 162.248L143.296 140.433C145.969 138.197 147.85 136.316 148.805 135.334L182.045 163.666C182.236 163.83 182.481 163.912 182.727 163.912C183.027 163.912 183.327 163.775 183.545 163.53C183.927 163.093 183.872 162.412 183.409 162.03ZM119.491 151.259C124.754 147.141 128.162 140.76 128.162 133.643C128.162 126.499 124.781 120.145 119.518 116.028C122.163 116.928 124.672 118.018 127.017 119.191C129.962 123.472 131.516 128.462 131.516 133.643C131.516 138.824 129.962 143.815 127.044 148.096C124.645 149.268 122.136 150.359 119.491 151.259ZM83.7964 148.096C80.8514 143.815 79.2971 138.824 79.2971 133.643C79.2971 128.462 80.8514 123.472 83.7964 119.191C86.1142 118.018 88.6229 116.928 91.2952 116.028C86.0324 120.145 82.6511 126.499 82.6511 133.643C82.6511 140.788 86.0324 147.141 91.2952 151.259C88.6502 150.359 86.1142 149.268 83.7964 148.096ZM84.7508 133.643C84.7508 124.072 91.4861 116.028 100.539 113.846C102.121 113.656 103.757 113.546 105.393 113.546C107.029 113.546 108.665 113.656 110.247 113.846C119.3 116.001 126.035 124.045 126.035 133.643C126.035 143.242 119.273 151.286 110.192 153.44C108.611 153.631 107.002 153.74 105.393 153.74C103.757 153.74 102.121 153.631 100.539 153.44C91.5134 151.259 84.7508 143.215 84.7508 133.643ZM64.1085 133.643C65.7991 131.925 69.9439 127.944 75.7249 123.99C76.8429 123.227 78.0427 122.436 79.3516 121.645C77.5792 125.381 76.6793 129.444 76.6793 133.643C76.6793 137.843 77.6064 141.906 79.3516 145.642C78.0427 144.851 76.8429 144.06 75.7249 143.296C69.9712 139.343 65.7991 135.361 64.1085 133.643ZM131.489 145.587C133.234 141.851 134.161 137.815 134.161 133.643C134.161 129.444 133.234 125.381 131.489 121.645C132.798 122.436 133.998 123.227 135.116 123.99C140.87 127.944 145.014 131.925 146.705 133.643C144.66 135.689 139.124 140.951 131.489 145.587Z" fill="#5E17FE"/>
<path d="M111.856 84.3145C117.037 84.3145 121.7 82.1603 125.054 78.7245C124.699 78.7517 124.345 78.7517 123.99 78.7517C113.846 78.7517 105.639 70.5439 105.639 60.4C105.639 55.4371 107.602 50.965 110.792 47.6655C101.139 48.2109 93.504 56.2006 93.504 65.99C93.504 76.1067 101.712 84.3145 111.856 84.3145Z" fill="#5E17FE"/>
<path d="M136.234 133.643C136.234 135.961 135.961 138.252 135.47 140.46C139.07 137.87 141.879 135.361 143.678 133.643C141.851 131.925 139.043 129.417 135.47 126.826C135.989 129.035 136.234 131.325 136.234 133.643Z" fill="#5E17FE"/>
<path d="M75.3158 126.826C71.7436 129.417 68.9077 131.925 67.108 133.643C68.9077 135.361 71.7436 137.87 75.3158 140.46C74.7977 138.252 74.5523 135.961 74.5523 133.643C74.5523 131.325 74.825 129.035 75.3158 126.826Z" fill="#5E17FE"/>
</svg>
